<svg width="317" height="317" viewBox="0 0 317 317" fill="none" xmlns="http://www.w3.org/2000/svg">
<g filter="url(#filter0_d)">
<circle cx="158.193" cy="158.193" r="138.193" fill="white"/>
<mask id="path-2-outside-1" maskUnits="userSpaceOnUse" x="35.1641" y="35.8672" width="245" height="245" fill="black">
<rect fill="white" x="35.1641" y="35.8672" width="245" height="245"/>
<path fill-rule="evenodd" clip-rule="evenodd" d="M134.617 156.261L136.748 160.359H136.888C137.001 160.569 137.173 160.742 137.382 160.856C137.591 160.97 137.828 161.022 138.066 161.004L153.302 159.829L57.7614 226.729L134.617 156.261ZM133.462 154.04L42.6483 237.3C42.5746 237.359 42.5085 237.425 42.4508 237.498C42.3196 237.653 42.2282 237.841 42.1876 238.043C42.1245 238.359 42.1893 238.687 42.3678 238.954C42.5463 239.222 42.8238 239.408 43.1393 239.471C43.4214 239.527 43.7132 239.482 43.9632 239.344C44.0124 239.32 44.0602 239.293 44.1063 239.262L44.1111 239.259L153.338 182.433L236.596 273.246C236.658 273.323 236.728 273.392 236.804 273.451C236.958 273.578 237.141 273.666 237.34 273.706C237.656 273.769 237.983 273.704 238.251 273.526C238.519 273.348 238.705 273.07 238.768 272.755C238.824 272.471 238.778 272.177 238.638 271.926C238.615 271.879 238.589 271.833 238.559 271.788L238.557 271.785L181.731 162.556L272.468 79.3669L272.486 79.3542C272.754 79.1757 272.94 78.8982 273.003 78.5827C273.066 78.2672 273.001 77.9395 272.823 77.6718C272.644 77.4041 272.367 77.2183 272.051 77.1552C271.971 77.139 271.889 77.1313 271.808 77.1316C271.553 77.1227 271.3 77.1932 271.085 77.3357L270.926 77.4467L161.854 134.165L78.6667 43.4302L78.6508 43.4074C78.4723 43.1397 78.1948 42.9539 77.8793 42.8908C77.5638 42.8277 77.2361 42.8925 76.9684 43.0709C76.7007 43.2494 76.5149 43.5269 76.4518 43.8424C76.4357 43.9227 76.4279 44.0038 76.4282 44.0845C76.4189 44.3402 76.4894 44.5942 76.6323 44.81L76.7455 44.9718L133.462 154.04ZM180.576 160.336L257.318 89.9716L161.891 156.768L177.125 155.593C177.363 155.575 177.601 155.627 177.81 155.741C178.019 155.855 178.19 156.028 178.303 156.238H178.443L180.576 160.336ZM159.126 162.592L160.301 177.829C160.319 178.066 160.267 178.304 160.153 178.513C160.038 178.722 159.866 178.893 159.656 179.006V179.147L155.558 181.279L226.026 258.133L225.939 258.009L159.126 162.592ZM150.886 146.604L89.2715 58.5804L159.634 135.32L155.534 137.452V137.592C155.325 137.705 155.152 137.876 155.038 138.085C154.923 138.294 154.872 138.532 154.89 138.769L156.04 153.964L150.886 146.604Z"/>
</mask>
<path fill-rule="evenodd" clip-rule="evenodd" d="M134.617 156.261L136.748 160.359H136.888C137.001 160.569 137.173 160.742 137.382 160.856C137.591 160.97 137.828 161.022 138.066 161.004L153.302 159.829L57.7614 226.729L134.617 156.261ZM133.462 154.04L42.6483 237.3C42.5746 237.359 42.5085 237.425 42.4508 237.498C42.3196 237.653 42.2282 237.841 42.1876 238.043C42.1245 238.359 42.1893 238.687 42.3678 238.954C42.5463 239.222 42.8238 239.408 43.1393 239.471C43.4214 239.527 43.7132 239.482 43.9632 239.344C44.0124 239.32 44.0602 239.293 44.1063 239.262L44.1111 239.259L153.338 182.433L236.596 273.246C236.658 273.323 236.728 273.392 236.804 273.451C236.958 273.578 237.141 273.666 237.34 273.706C237.656 273.769 237.983 273.704 238.251 273.526C238.519 273.348 238.705 273.07 238.768 272.755C238.824 272.471 238.778 272.177 238.638 271.926C238.615 271.879 238.589 271.833 238.559 271.788L238.557 271.785L181.731 162.556L272.468 79.3669L272.486 79.3542C272.754 79.1757 272.94 78.8982 273.003 78.5827C273.066 78.2672 273.001 77.9395 272.823 77.6718C272.644 77.4041 272.367 77.2183 272.051 77.1552C271.971 77.139 271.889 77.1313 271.808 77.1316C271.553 77.1227 271.3 77.1932 271.085 77.3357L270.926 77.4467L161.854 134.165L78.6667 43.4302L78.6508 43.4074C78.4723 43.1397 78.1948 42.9539 77.8793 42.8908C77.5638 42.8277 77.2361 42.8925 76.9684 43.0709C76.7007 43.2494 76.5149 43.5269 76.4518 43.8424C76.4357 43.9227 76.4279 44.0038 76.4282 44.0845C76.4189 44.3402 76.4894 44.5942 76.6323 44.81L76.7455 44.9718L133.462 154.04ZM180.576 160.336L257.318 89.9716L161.891 156.768L177.125 155.593C177.363 155.575 177.601 155.627 177.81 155.741C178.019 155.855 178.19 156.028 178.303 156.238H178.443L180.576 160.336ZM159.126 162.592L160.301 177.829C160.319 178.066 160.267 178.304 160.153 178.513C160.038 178.722 159.866 178.893 159.656 179.006V179.147L155.558 181.279L226.026 258.133L225.939 258.009L159.126 162.592ZM150.886 146.604L89.2715 58.5804L159.634 135.32L155.534 137.452V137.592C155.325 137.705 155.152 137.876 155.038 138.085C154.923 138.294 154.872 138.532 154.89 138.769L156.04 153.964L150.886 146.604Z" fill="white"/>
<path d="M136.748 160.359L130.538 163.589L132.498 167.359H136.748V160.359ZM134.617 156.261L140.827 153.031L136.615 144.931L129.886 151.101L134.617 156.261ZM136.888 160.359L143.05 157.038L141.067 153.359H136.888V160.359ZM137.382 160.856L134.02 166.996L134.02 166.996L137.382 160.856ZM138.066 161.004L138.586 167.985L138.595 167.984L138.604 167.983L138.066 161.004ZM153.302 159.829L157.318 165.563L178.285 150.881L152.764 152.85L153.302 159.829ZM57.7614 226.729L53.0307 221.569L61.7765 232.463L57.7614 226.729ZM42.6483 237.3L47.0177 242.769L47.2035 242.62L47.3787 242.459L42.6483 237.3ZM133.462 154.04L138.193 159.2L142.149 155.573L139.673 150.811L133.462 154.04ZM42.4508 237.498L47.7964 242.018L47.8699 241.931L47.9406 241.841L42.4508 237.498ZM42.1876 238.043L35.3236 236.671L35.3236 236.671L42.1876 238.043ZM42.3678 238.954L48.1922 235.071L48.1921 235.071L42.3678 238.954ZM43.1393 239.471L41.7663 246.335L41.7667 246.335L43.1393 239.471ZM43.9632 239.344L40.9127 233.043L40.745 233.125L40.582 233.214L43.9632 239.344ZM44.1063 239.262L47.9498 245.113L48.0343 245.057L48.1172 244.999L44.1063 239.262ZM44.1111 239.259L40.8804 233.049L40.4749 233.26L40.1002 233.522L44.1111 239.259ZM153.338 182.433L158.498 177.703L154.87 173.746L150.108 176.224L153.338 182.433ZM236.596 273.246L242.065 268.876L241.917 268.691L241.756 268.516L236.596 273.246ZM236.804 273.451L241.269 268.059L241.182 267.988L241.093 267.919L236.804 273.451ZM237.34 273.706L235.967 280.57L235.968 280.57L237.34 273.706ZM238.251 273.526L242.134 279.35L242.134 279.35L238.251 273.526ZM238.768 272.755L245.632 274.128L245.632 274.127L238.768 272.755ZM238.638 271.926L232.35 275.003L232.432 275.17L232.523 275.332L238.638 271.926ZM238.559 271.788L244.41 267.945L244.352 267.856L244.291 267.77L238.559 271.788ZM238.557 271.785L232.347 275.016L232.56 275.425L232.825 275.803L238.557 271.785ZM181.731 162.556L177 157.397L173.043 161.025L175.521 165.787L181.731 162.556ZM272.468 79.3669L268.454 73.6323L268.077 73.8962L267.738 74.2072L272.468 79.3669ZM272.486 79.3542L268.603 73.5298L268.537 73.5739L268.472 73.6196L272.486 79.3542ZM273.003 78.5827L266.139 77.21L266.139 77.21L273.003 78.5827ZM272.823 77.6718L266.998 81.5546L266.999 81.5548L272.823 77.6718ZM272.051 77.1552L270.678 84.0192L270.678 84.0192L272.051 77.1552ZM271.808 77.1316L271.565 84.1274L271.701 84.1321L271.837 84.1315L271.808 77.1316ZM271.085 77.3357L267.222 71.4981L267.145 71.5491L267.069 71.6022L271.085 77.3357ZM270.926 77.4467L274.156 83.6572L274.565 83.4446L274.942 83.1803L270.926 77.4467ZM161.854 134.165L156.694 138.896L160.321 142.852L165.083 140.376L161.854 134.165ZM78.6667 43.4302L72.932 47.4443L73.196 47.8214L73.507 48.1607L78.6667 43.4302ZM78.6508 43.4074L72.8264 47.2903L72.8705 47.3564L72.9161 47.4215L78.6508 43.4074ZM77.8793 42.8908L76.5065 49.7548L76.5065 49.7548L77.8793 42.8908ZM76.9684 43.0709L73.0855 37.2466L73.0855 37.2466L76.9684 43.0709ZM76.4518 43.8424L69.5877 42.4696L69.5877 42.4697L76.4518 43.8424ZM76.4282 44.0845L83.4236 44.338L83.4286 44.1992L83.4282 44.0604L76.4282 44.0845ZM76.6323 44.81L70.7947 48.673L70.8457 48.7501L70.8987 48.8258L76.6323 44.81ZM76.7455 44.9718L82.956 41.7423L82.7435 41.3334L82.4791 40.956L76.7455 44.9718ZM180.576 160.336L174.366 163.567L178.578 171.665L185.306 165.496L180.576 160.336ZM257.318 89.9716L262.049 95.1311L253.304 84.237L257.318 89.9716ZM161.891 156.768L157.877 151.033L136.9 165.717L162.43 163.747L161.891 156.768ZM177.125 155.593L176.605 148.612L176.596 148.613L176.587 148.614L177.125 155.593ZM178.303 156.238L172.141 159.559L174.124 163.238H178.303V156.238ZM178.443 156.238L184.653 153.007L182.692 149.238H178.443V156.238ZM159.126 162.592L164.86 158.576L150.178 137.609L152.146 163.13L159.126 162.592ZM160.301 177.829L167.282 177.308L167.281 177.299L167.28 177.29L160.301 177.829ZM159.656 179.006L156.334 172.845L152.656 174.828V179.006H159.656ZM159.656 179.147L162.887 185.356L166.656 183.395V179.147H159.656ZM155.558 181.279L152.327 175.069L144.23 179.281L150.399 186.009L155.558 181.279ZM226.026 258.133L220.866 262.864L231.763 254.123L226.026 258.133ZM225.939 258.009L231.676 253.999L231.673 253.994L225.939 258.009ZM89.2715 58.5804L94.431 53.8497L83.5368 62.5945L89.2715 58.5804ZM150.886 146.604L145.151 150.618L145.152 150.62L150.886 146.604ZM159.634 135.32L162.863 141.53L170.963 137.318L164.793 130.589L159.634 135.32ZM155.534 137.452L152.305 131.241L148.534 133.202V137.452H155.534ZM155.534 137.592L158.856 143.754L162.534 141.771V137.592H155.534ZM155.038 138.085L161.177 141.447L161.177 141.447L155.038 138.085ZM154.89 138.769L147.909 139.289L147.91 139.298L154.89 138.769ZM156.04 153.964L150.306 157.98L164.947 178.888L163.02 153.436L156.04 153.964ZM142.959 157.13L140.827 153.031L128.406 159.49L130.538 163.589L142.959 157.13ZM136.888 153.359H136.748V167.359H136.888V153.359ZM140.744 154.716C141.721 155.251 142.522 156.058 143.05 157.038L130.727 163.681C131.481 165.08 132.625 166.232 134.02 166.996L140.744 154.716ZM137.546 154.024C138.656 153.941 139.767 154.181 140.744 154.716L134.02 166.996C135.415 167.76 137.001 168.103 138.586 167.985L137.546 154.024ZM152.764 152.85L137.528 154.025L138.604 167.983L153.841 166.808L152.764 152.85ZM61.7765 232.463L157.318 165.563L149.287 154.095L53.7463 220.995L61.7765 232.463ZM129.886 151.101L53.0307 221.569L62.4921 231.888L139.348 161.42L129.886 151.101ZM47.3787 242.459L138.193 159.2L128.732 148.881L37.9178 232.14L47.3787 242.459ZM47.9406 241.841C47.6707 242.182 47.3614 242.494 47.0177 242.769L38.2788 231.831C37.7877 232.223 37.3463 232.668 36.961 233.155L47.9406 241.841ZM49.0517 239.416C48.8581 240.384 48.422 241.277 47.7964 242.018L37.1052 232.979C36.2171 234.029 35.5984 235.297 35.3236 236.671L49.0517 239.416ZM48.1921 235.071C49.0436 236.349 49.3527 237.911 49.0517 239.416L35.3236 236.671C34.8964 238.807 35.3351 241.025 36.5436 242.837L48.1921 235.071ZM44.5123 232.607C46.0171 232.908 47.3408 233.794 48.1922 235.071L36.5434 242.837C37.7518 244.65 39.6305 245.908 41.7663 246.335L44.5123 232.607ZM40.582 233.214C41.7747 232.557 43.1664 232.338 44.512 232.607L41.7667 246.335C43.6764 246.717 45.6517 246.407 47.3444 245.473L40.582 233.214ZM40.2628 233.412C40.4723 233.274 40.6895 233.151 40.9127 233.043L47.0137 245.644C47.3352 245.488 47.648 245.311 47.9498 245.113L40.2628 233.412ZM40.1002 233.522L40.0954 233.526L48.1172 244.999L48.122 244.996L40.1002 233.522ZM150.108 176.224L40.8804 233.049L47.3418 245.469L156.569 188.643L150.108 176.224ZM241.756 268.516L158.498 177.703L148.179 187.164L231.437 277.977L241.756 268.516ZM241.093 267.919C241.452 268.197 241.779 268.518 242.065 268.876L231.128 277.616C231.537 278.128 232.004 278.586 232.515 278.983L241.093 267.919ZM238.713 266.842C239.659 267.031 240.536 267.453 241.269 268.059L232.34 278.843C233.379 279.703 234.624 280.302 235.967 280.57L238.713 266.842ZM234.368 267.702C235.645 266.85 237.208 266.541 238.713 266.842L235.968 280.57C238.103 280.997 240.321 280.559 242.134 279.35L234.368 267.702ZM231.904 271.382C232.205 269.877 233.091 268.553 234.368 267.702L242.134 279.35C243.946 278.142 245.205 276.263 245.632 274.128L231.904 271.382ZM232.523 275.332C231.855 274.135 231.633 272.734 231.904 271.382L245.632 274.127C246.016 272.207 245.7 270.22 244.754 268.52L232.523 275.332ZM232.709 275.632C232.576 275.43 232.457 275.22 232.35 275.003L244.926 268.85C244.773 268.538 244.601 268.235 244.41 267.945L232.709 275.632ZM232.825 275.803L232.827 275.806L244.291 267.77L244.289 267.767L232.825 275.803ZM175.521 165.787L232.347 275.016L244.767 268.554L187.94 159.326L175.521 165.787ZM267.738 74.2072L177 157.397L186.461 167.716L277.199 84.5266L267.738 74.2072ZM268.472 73.6196L268.454 73.6323L276.482 85.1015L276.501 85.0888L268.472 73.6196ZM266.139 77.21C266.44 75.705 267.326 74.3812 268.603 73.5298L276.369 85.1786C278.182 83.9702 279.44 82.0914 279.867 79.9554L266.139 77.21ZM266.999 81.5548C266.147 80.2776 265.838 78.7147 266.139 77.21L279.867 79.9554C280.294 77.8197 279.856 75.6014 278.647 73.7888L266.999 81.5548ZM270.678 84.0192C269.174 83.7182 267.85 82.8318 266.998 81.5546L278.647 73.789C277.439 71.9764 275.56 70.7183 273.424 70.2911L270.678 84.0192ZM271.837 84.1315C271.451 84.1331 271.063 84.096 270.678 84.0192L273.424 70.2911C272.879 70.182 272.328 70.1294 271.779 70.1317L271.837 84.1315ZM274.948 83.1734C273.941 83.8395 272.757 84.1688 271.565 84.1274L272.051 70.1358C270.349 70.0767 268.659 70.547 267.222 71.4981L274.948 83.1734ZM274.942 83.1803L275.101 83.0693L267.069 71.6022L266.91 71.7132L274.942 83.1803ZM165.083 140.376L274.156 83.6572L267.697 71.2363L158.624 127.955L165.083 140.376ZM73.507 48.1607L156.694 138.896L167.014 129.435L83.8264 38.6997L73.507 48.1607ZM72.9161 47.4215L72.932 47.4443L84.4014 39.4161L84.3855 39.3933L72.9161 47.4215ZM76.5065 49.7548C75.0016 49.4538 73.6778 48.5674 72.8264 47.2903L84.4751 39.5245C83.2668 37.7121 81.388 36.4539 79.2521 36.0267L76.5065 49.7548ZM80.8513 48.8953C79.5743 49.7467 78.0114 50.0558 76.5065 49.7548L79.2521 36.0267C77.1162 35.5995 74.898 36.0383 73.0855 37.2466L80.8513 48.8953ZM83.3158 45.2153C83.0149 46.72 82.1285 48.0438 80.8513 48.8953L73.0855 37.2466C71.2729 38.455 70.0149 40.3338 69.5877 42.4696L83.3158 45.2153ZM83.4282 44.0604C83.4295 44.4456 83.3923 44.8326 83.3158 45.2152L69.5877 42.4697C69.479 43.0129 69.4264 43.562 69.4282 44.1087L83.4282 44.0604ZM82.4699 40.9471C83.1376 41.9562 83.4669 43.143 83.4236 44.338L69.4328 43.831C69.371 45.5375 69.8412 47.2322 70.7947 48.673L82.4699 40.9471ZM82.4791 40.956L82.3658 40.7943L70.8987 48.8258L71.012 48.9875L82.4791 40.956ZM139.673 150.811L82.956 41.7423L70.5351 48.2013L127.252 157.27L139.673 150.811ZM185.306 165.496L262.049 95.1311L252.587 84.8121L175.845 155.177L185.306 165.496ZM253.304 84.237L157.877 151.033L165.905 162.503L261.332 95.7063L253.304 84.237ZM162.43 163.747L177.664 162.572L176.587 148.614L161.353 149.789L162.43 163.747ZM177.645 162.573C176.535 162.656 175.424 162.416 174.448 161.881L181.172 149.601C179.777 148.837 178.191 148.494 176.605 148.612L177.645 162.573ZM174.448 161.881C173.471 161.346 172.67 160.54 172.141 159.559L184.465 152.916C183.71 151.516 182.567 150.365 181.172 149.601L174.448 161.881ZM178.303 163.238H178.443V149.238H178.303V163.238ZM172.233 159.468L174.366 163.567L186.785 157.106L184.653 153.007L172.233 159.468ZM152.146 163.13L153.322 178.367L167.28 177.29L166.105 162.053L152.146 163.13ZM153.32 178.349C153.238 177.239 153.478 176.128 154.013 175.151L166.293 181.875C167.056 180.48 167.4 178.894 167.282 177.308L153.32 178.349ZM154.013 175.151C154.548 174.174 155.354 173.373 156.334 172.845L162.978 185.168C164.377 184.414 165.529 183.27 166.293 181.875L154.013 175.151ZM152.656 179.006V179.147H166.656V179.006H152.656ZM156.425 172.937L152.327 175.069L158.789 187.488L162.887 185.356L156.425 172.937ZM150.399 186.009L220.866 262.864L231.185 253.402L160.718 176.548L150.399 186.009ZM231.763 254.123L231.676 253.999L220.201 262.019L220.288 262.143L231.763 254.123ZM231.673 253.994L164.86 158.576L153.392 166.607L220.205 262.024L231.673 253.994ZM83.5368 62.5945L145.151 150.618L156.621 142.59L95.0062 54.5662L83.5368 62.5945ZM164.793 130.589L94.431 53.8497L84.112 63.3111L154.474 140.051L164.793 130.589ZM158.764 143.662L162.863 141.53L156.404 129.109L152.305 131.241L158.764 143.662ZM162.534 137.592V137.452H148.534V137.592H162.534ZM161.177 141.447C160.643 142.424 159.836 143.225 158.856 143.754L152.213 131.43C150.813 132.185 149.662 133.328 148.898 134.723L161.177 141.447ZM161.87 138.249C161.953 139.36 161.712 140.47 161.177 141.447L148.898 134.723C148.134 136.118 147.791 137.704 147.909 139.289L161.87 138.249ZM163.02 153.436L161.87 138.241L147.91 139.298L149.06 154.493L163.02 153.436ZM145.152 150.62L150.306 157.98L161.774 149.949L156.62 142.589L145.152 150.62Z" fill="white" mask="url(#path-2-outside-1)"/>
<mask id="path-4-outside-2" maskUnits="userSpaceOnUse" x="35.1641" y="35.8672" width="245" height="245" fill="black">
<rect fill="white" x="35.1641" y="35.8672" width="245" height="245"/>
<path fill-rule="evenodd" clip-rule="evenodd" d="M134.617 156.261L136.748 160.359H136.888C137.001 160.569 137.173 160.742 137.382 160.856C137.591 160.97 137.828 161.022 138.066 161.004L153.302 159.829L57.7614 226.729L134.617 156.261ZM133.462 154.04L42.6483 237.3C42.5744 237.359 42.5082 237.425 42.4505 237.498C42.3194 237.654 42.2282 237.841 42.1876 238.043C42.1245 238.359 42.1893 238.687 42.3678 238.954C42.5463 239.222 42.8238 239.408 43.1393 239.471C43.4216 239.527 43.7136 239.481 43.9636 239.343C44.0127 239.32 44.0603 239.293 44.1063 239.262L44.1109 239.259L153.338 182.433L236.596 273.246C236.658 273.323 236.728 273.392 236.804 273.451C236.958 273.578 237.141 273.667 237.34 273.706C237.656 273.769 237.983 273.705 238.251 273.526C238.519 273.348 238.705 273.07 238.768 272.755C238.824 272.471 238.778 272.178 238.639 271.927C238.615 271.88 238.589 271.833 238.559 271.788L238.557 271.785L181.73 162.556L272.468 79.3666L272.486 79.354C272.754 79.1755 272.94 78.898 273.003 78.5825C273.066 78.267 273.001 77.9394 272.823 77.6717C272.644 77.4039 272.367 77.2181 272.051 77.155C271.97 77.1388 271.889 77.131 271.807 77.1314C271.553 77.1228 271.3 77.1933 271.085 77.3356L270.926 77.4465L161.854 134.165L78.6664 43.4297L78.6508 43.4074C78.4723 43.1397 78.1948 42.9539 77.8793 42.8908C77.5638 42.8277 77.2361 42.8925 76.9684 43.0709C76.7007 43.2494 76.5149 43.5269 76.4518 43.8424C76.4357 43.9227 76.4279 44.0037 76.4282 44.0843C76.4189 44.3401 76.4894 44.594 76.6323 44.8099L76.7453 44.9713L133.462 154.04ZM180.576 160.336L257.318 89.9713L161.891 156.768L177.125 155.593C177.363 155.575 177.601 155.627 177.81 155.741C178.019 155.855 178.19 156.028 178.303 156.238H178.443L180.576 160.336ZM159.126 162.592L160.301 177.829C160.319 178.066 160.267 178.304 160.153 178.513C160.038 178.722 159.866 178.893 159.656 179.006V179.146L155.558 181.278L226.026 258.133L225.978 258.065L159.126 162.592ZM150.695 146.331L89.2711 58.5799L159.634 135.32L155.534 137.451V137.592C155.325 137.705 155.152 137.876 155.038 138.085C154.923 138.294 154.872 138.532 154.89 138.769L156.04 153.964L150.695 146.331Z"/>
</mask>
<path fill-rule="evenodd" clip-rule="evenodd" d="M134.617 156.261L136.748 160.359H136.888C137.001 160.569 137.173 160.742 137.382 160.856C137.591 160.97 137.828 161.022 138.066 161.004L153.302 159.829L57.7614 226.729L134.617 156.261ZM133.462 154.04L42.6483 237.3C42.5744 237.359 42.5082 237.425 42.4505 237.498C42.3194 237.654 42.2282 237.841 42.1876 238.043C42.1245 238.359 42.1893 238.687 42.3678 238.954C42.5463 239.222 42.8238 239.408 43.1393 239.471C43.4216 239.527 43.7136 239.481 43.9636 239.343C44.0127 239.32 44.0603 239.293 44.1063 239.262L44.1109 239.259L153.338 182.433L236.596 273.246C236.658 273.323 236.728 273.392 236.804 273.451C236.958 273.578 237.141 273.667 237.34 273.706C237.656 273.769 237.983 273.705 238.251 273.526C238.519 273.348 238.705 273.07 238.768 272.755C238.824 272.471 238.778 272.178 238.639 271.927C238.615 271.88 238.589 271.833 238.559 271.788L238.557 271.785L181.73 162.556L272.468 79.3666L272.486 79.354C272.754 79.1755 272.94 78.898 273.003 78.5825C273.066 78.267 273.001 77.9394 272.823 77.6717C272.644 77.4039 272.367 77.2181 272.051 77.155C271.97 77.1388 271.889 77.131 271.807 77.1314C271.553 77.1228 271.3 77.1933 271.085 77.3356L270.926 77.4465L161.854 134.165L78.6664 43.4297L78.6508 43.4074C78.4723 43.1397 78.1948 42.9539 77.8793 42.8908C77.5638 42.8277 77.2361 42.8925 76.9684 43.0709C76.7007 43.2494 76.5149 43.5269 76.4518 43.8424C76.4357 43.9227 76.4279 44.0037 76.4282 44.0843C76.4189 44.3401 76.4894 44.594 76.6323 44.8099L76.7453 44.9713L133.462 154.04ZM180.576 160.336L257.318 89.9713L161.891 156.768L177.125 155.593C177.363 155.575 177.601 155.627 177.81 155.741C178.019 155.855 178.19 156.028 178.303 156.238H178.443L180.576 160.336ZM159.126 162.592L160.301 177.829C160.319 178.066 160.267 178.304 160.153 178.513C160.038 178.722 159.866 178.893 159.656 179.006V179.146L155.558 181.278L226.026 258.133L225.978 258.065L159.126 162.592ZM150.695 146.331L89.2711 58.5799L159.634 135.32L155.534 137.451V137.592C155.325 137.705 155.152 137.876 155.038 138.085C154.923 138.294 154.872 138.532 154.89 138.769L156.04 153.964L150.695 146.331Z" fill="white"/>
<path d="M136.748 160.359L130.538 163.589L132.498 167.359H136.748V160.359ZM134.617 156.261L140.827 153.031L136.615 144.931L129.886 151.101L134.617 156.261ZM136.888 160.359L143.05 157.038L141.067 153.359H136.888V160.359ZM137.382 160.856L134.019 166.996L134.02 166.996L137.382 160.856ZM138.066 161.004L138.586 167.985L138.595 167.984L138.604 167.983L138.066 161.004ZM153.302 159.829L157.317 165.563L178.285 150.881L152.764 152.85L153.302 159.829ZM57.7614 226.729L53.0307 221.569L61.7765 232.463L57.7614 226.729ZM42.6483 237.3L47.0172 242.769L47.2032 242.62L47.3787 242.459L42.6483 237.3ZM133.462 154.04L138.193 159.2L142.149 155.573L139.673 150.811L133.462 154.04ZM42.4505 237.498L47.7981 242.015L47.8715 241.928L47.9421 241.839L42.4505 237.498ZM42.1876 238.043L35.3236 236.671L35.3236 236.671L42.1876 238.043ZM42.3678 238.954L48.1922 235.071L48.1921 235.071L42.3678 238.954ZM43.1393 239.471L41.7663 246.335L41.7667 246.335L43.1393 239.471ZM43.9636 239.343L40.9117 233.044L40.7434 233.125L40.5797 233.216L43.9636 239.343ZM44.1063 239.262L47.9497 245.113L48.0377 245.055L48.124 244.995L44.1063 239.262ZM44.1109 239.259L40.8802 233.049L40.471 233.262L40.0932 233.527L44.1109 239.259ZM153.338 182.433L158.498 177.703L154.87 173.746L150.107 176.224L153.338 182.433ZM236.596 273.246L242.066 268.877L241.917 268.691L241.756 268.516L236.596 273.246ZM236.804 273.451L241.268 268.059L241.182 267.987L241.093 267.918L236.804 273.451ZM237.34 273.706L235.967 280.57L235.968 280.57L237.34 273.706ZM238.251 273.526L242.134 279.351L242.134 279.35L238.251 273.526ZM238.768 272.755L231.904 271.381L231.904 271.382L238.768 272.755ZM238.639 271.927L232.349 274.999L232.43 275.166L232.52 275.328L238.639 271.927ZM238.559 271.788L244.409 267.943L244.351 267.856L244.291 267.77L238.559 271.788ZM238.557 271.785L232.347 275.015L232.56 275.425L232.825 275.802L238.557 271.785ZM181.73 162.556L177 157.397L173.043 161.024L175.521 165.787L181.73 162.556ZM272.468 79.3666L268.454 73.6322L268.077 73.896L267.738 74.2069L272.468 79.3666ZM272.486 79.354L268.603 73.5296L268.537 73.5739L268.472 73.6196L272.486 79.354ZM273.003 78.5825L266.139 77.2098L266.139 77.2098L273.003 78.5825ZM272.823 77.6717L266.998 81.5544L266.999 81.5546L272.823 77.6717ZM272.051 77.155L273.424 70.2909L273.424 70.2909L272.051 77.155ZM271.807 77.1314L271.57 84.1274L271.706 84.132L271.842 84.1314L271.807 77.1314ZM271.085 77.3356L267.222 71.498L267.145 71.549L267.069 71.602L271.085 77.3356ZM270.926 77.4465L274.156 83.657L274.565 83.4444L274.942 83.1801L270.926 77.4465ZM161.854 134.165L156.694 138.896L160.321 142.852L165.083 140.376L161.854 134.165ZM78.6664 43.4297L72.9316 47.4437L73.1956 47.8209L73.5067 48.1602L78.6664 43.4297ZM78.6508 43.4074L72.8264 47.2903L72.8705 47.3564L72.916 47.4214L78.6508 43.4074ZM77.8793 42.8908L76.5065 49.7548L76.5065 49.7548L77.8793 42.8908ZM76.9684 43.0709L73.0855 37.2466L73.0855 37.2466L76.9684 43.0709ZM76.4518 43.8424L83.3158 45.2154L83.3158 45.2153L76.4518 43.8424ZM76.4282 44.0843L83.4236 44.3383L83.4286 44.1999L83.4282 44.0615L76.4282 44.0843ZM76.6323 44.8099L70.7946 48.6728L70.8456 48.7499L70.8987 48.8256L76.6323 44.8099ZM76.7453 44.9713L82.9558 41.7418L82.7432 41.333L82.4789 40.9556L76.7453 44.9713ZM180.576 160.336L174.366 163.567L178.578 171.664L185.306 165.496L180.576 160.336ZM257.318 89.9713L262.049 95.1308L253.304 84.2367L257.318 89.9713ZM161.891 156.768L157.877 151.033L136.9 165.717L162.429 163.747L161.891 156.768ZM177.125 155.593L176.605 148.612L176.596 148.613L176.587 148.614L177.125 155.593ZM178.303 156.238L172.141 159.559L174.124 163.238H178.303V156.238ZM178.443 156.238L184.653 153.007L182.692 149.238H178.443V156.238ZM159.126 162.592L164.86 158.577L150.178 137.609L152.146 163.13L159.126 162.592ZM160.301 177.829L167.282 177.308L167.281 177.299L167.28 177.29L160.301 177.829ZM159.656 179.006L156.334 172.845L152.656 174.828V179.006H159.656ZM159.656 179.146L162.887 185.356L166.656 183.395V179.146H159.656ZM155.558 181.278L152.327 175.069L144.23 179.281L150.399 186.009L155.558 181.278ZM226.026 258.133L220.866 262.864L231.763 254.123L226.026 258.133ZM225.978 258.065L231.716 254.055L231.712 254.05L225.978 258.065ZM89.2711 58.5799L94.4306 53.8492L83.5364 62.594L89.2711 58.5799ZM150.695 146.331L144.96 150.346L144.961 150.347L150.695 146.331ZM159.634 135.32L162.863 141.53L170.963 137.318L164.793 130.589L159.634 135.32ZM155.534 137.451L152.305 131.241L148.534 133.202V137.451H155.534ZM155.534 137.592L158.856 143.753L162.534 141.77V137.592H155.534ZM155.038 138.085L161.177 141.447L161.177 141.447L155.038 138.085ZM154.89 138.769L147.909 139.289L147.91 139.298L154.89 138.769ZM156.04 153.964L150.306 157.98L164.947 178.887L163.02 153.436L156.04 153.964ZM142.959 157.13L140.827 153.031L128.406 159.49L130.538 163.589L142.959 157.13ZM136.888 153.359H136.748V167.359H136.888V153.359ZM140.744 154.716C141.721 155.251 142.522 156.057 143.05 157.038L130.727 163.681C131.481 165.081 132.625 166.232 134.019 166.996L140.744 154.716ZM137.546 154.024C138.656 153.941 139.767 154.181 140.744 154.716L134.02 166.996C135.415 167.76 137.001 168.103 138.586 167.985L137.546 154.024ZM152.764 152.85L137.528 154.025L138.604 167.983L153.841 166.808L152.764 152.85ZM61.7765 232.463L157.317 165.563L149.287 154.095L53.7463 220.995L61.7765 232.463ZM129.886 151.101L53.0307 221.569L62.4921 231.888L139.347 161.42L129.886 151.101ZM47.3787 242.459L138.193 159.2L128.732 148.881L37.9178 232.14L47.3787 242.459ZM47.9421 241.839C47.6722 242.181 47.3625 242.493 47.0172 242.769L38.2794 231.83C37.7864 232.224 37.3442 232.67 36.9589 233.158L47.9421 241.839ZM49.0517 239.416C48.8582 240.383 48.4228 241.276 47.7981 242.015L37.1028 232.982C36.216 234.031 35.5981 235.298 35.3236 236.671L49.0517 239.416ZM48.1921 235.071C49.0436 236.348 49.3527 237.911 49.0517 239.416L35.3236 236.671C34.8964 238.806 35.3351 241.025 36.5436 242.837L48.1921 235.071ZM44.5123 232.607C46.0171 232.908 47.3408 233.794 48.1922 235.071L36.5434 242.837C37.7518 244.65 39.6305 245.908 41.7663 246.335L44.5123 232.607ZM40.5797 233.216C41.7731 232.557 43.1657 232.338 44.5119 232.607L41.7667 246.335C43.6774 246.717 45.654 246.406 47.3476 245.471L40.5797 233.216ZM40.263 233.412C40.4711 233.275 40.6879 233.152 40.9117 233.044L47.0156 245.643C47.3374 245.487 47.6495 245.31 47.9497 245.113L40.263 233.412ZM40.0932 233.527L40.0886 233.53L48.124 244.995L48.1287 244.991L40.0932 233.527ZM150.107 176.224L40.8802 233.049L47.3416 245.469L156.569 188.643L150.107 176.224ZM241.756 268.516L158.498 177.703L148.178 187.164L231.437 277.977L241.756 268.516ZM241.093 267.918C241.451 268.196 241.779 268.518 242.066 268.877L231.127 277.615C231.537 278.128 232.004 278.587 232.516 278.984L241.093 267.918ZM238.713 266.842C239.661 267.032 240.537 267.454 241.268 268.059L232.341 278.843C233.378 279.702 234.622 280.301 235.967 280.57L238.713 266.842ZM234.368 267.702C235.645 266.85 237.208 266.541 238.713 266.842L235.968 280.57C238.103 280.997 240.321 280.559 242.134 279.351L234.368 267.702ZM231.904 271.382C232.205 269.877 233.091 268.553 234.368 267.702L242.134 279.35C243.946 278.142 245.205 276.263 245.632 274.127L231.904 271.382ZM232.52 275.328C231.855 274.132 231.633 272.733 231.904 271.381L245.632 274.128C246.015 272.209 245.701 270.225 244.757 268.527L232.52 275.328ZM232.71 275.633C232.575 275.427 232.454 275.216 232.349 274.999L244.929 268.856C244.776 268.544 244.603 268.239 244.409 267.943L232.71 275.633ZM232.825 275.802L232.827 275.806L244.291 267.77L244.289 267.767L232.825 275.802ZM175.521 165.787L232.347 275.015L244.767 268.554L187.94 159.326L175.521 165.787ZM267.738 74.2069L177 157.397L186.461 167.716L277.199 84.5263L267.738 74.2069ZM268.472 73.6196L268.454 73.6322L276.483 85.101L276.501 85.0884L268.472 73.6196ZM266.139 77.2098C266.44 75.7048 267.326 74.381 268.603 73.5296L276.369 85.1784C278.182 83.9701 279.44 82.0912 279.867 79.9552L266.139 77.2098ZM266.999 81.5546C266.147 80.2774 265.838 78.7145 266.139 77.2098L279.867 79.9552C280.294 77.8195 279.856 75.6013 278.647 73.7887L266.999 81.5546ZM270.678 84.0191C269.174 83.7181 267.85 82.8316 266.998 81.5544L278.647 73.7889C277.439 71.9762 275.56 70.7181 273.424 70.2909L270.678 84.0191ZM271.842 84.1314C271.454 84.1333 271.064 84.0962 270.679 84.0191L273.424 70.2909C272.876 70.1814 272.323 70.1288 271.772 70.1315L271.842 84.1314ZM274.948 83.1732C273.942 83.8384 272.761 84.1677 271.57 84.1274L272.044 70.1355C270.344 70.0779 268.657 70.5482 267.222 71.498L274.948 83.1732ZM274.942 83.1801L275.1 83.0692L267.069 71.602L266.911 71.7129L274.942 83.1801ZM165.083 140.376L274.156 83.657L267.697 71.236L158.624 127.955L165.083 140.376ZM73.5067 48.1602L156.694 138.896L167.014 129.435L83.8261 38.6992L73.5067 48.1602ZM72.916 47.4214L72.9316 47.4437L84.4012 39.4157L84.3856 39.3934L72.916 47.4214ZM76.5065 49.7548C75.0016 49.4538 73.6778 48.5674 72.8264 47.2903L84.4751 39.5245C83.2668 37.7121 81.388 36.4539 79.2521 36.0267L76.5065 49.7548ZM80.8513 48.8953C79.5743 49.7467 78.0114 50.0558 76.5065 49.7548L79.2521 36.0267C77.1162 35.5995 74.898 36.0383 73.0855 37.2466L80.8513 48.8953ZM83.3158 45.2153C83.0149 46.72 82.1285 48.0438 80.8513 48.8953L73.0855 37.2466C71.2729 38.455 70.0149 40.3338 69.5877 42.4696L83.3158 45.2153ZM83.4282 44.0615C83.4294 44.4461 83.3923 44.8328 83.3158 45.2154L69.5877 42.4695C69.4791 43.0126 69.4265 43.5613 69.4282 44.1072L83.4282 44.0615ZM82.4699 40.947C83.1377 41.9562 83.467 43.1432 83.4236 44.3383L69.4328 43.8303C69.3708 45.537 69.8411 47.2319 70.7946 48.6728L82.4699 40.947ZM82.4789 40.9556L82.3658 40.7942L70.8987 48.8256L71.0117 48.987L82.4789 40.9556ZM139.673 150.811L82.9558 41.7418L70.5348 48.2008L127.252 157.27L139.673 150.811ZM185.306 165.496L262.049 95.1308L252.587 84.8119L175.845 155.177L185.306 165.496ZM253.304 84.2367L157.877 151.033L165.905 162.503L261.332 95.706L253.304 84.2367ZM162.429 163.747L177.664 162.572L176.587 148.614L161.353 149.789L162.429 163.747ZM177.645 162.573C176.535 162.656 175.424 162.416 174.448 161.881L181.172 149.601C179.777 148.837 178.191 148.494 176.605 148.612L177.645 162.573ZM174.448 161.881C173.471 161.346 172.67 160.539 172.141 159.559L184.465 152.916C183.71 151.516 182.567 150.365 181.172 149.601L174.448 161.881ZM178.303 163.238H178.443V149.238H178.303V163.238ZM172.233 159.468L174.366 163.567L186.785 157.106L184.653 153.007L172.233 159.468ZM152.146 163.13L153.322 178.367L167.28 177.29L166.105 162.053L152.146 163.13ZM153.32 178.349C153.238 177.238 153.478 176.128 154.013 175.151L166.293 181.875C167.056 180.48 167.4 178.894 167.282 177.308L153.32 178.349ZM154.013 175.151C154.548 174.174 155.354 173.373 156.334 172.845L162.978 185.168C164.377 184.413 165.529 183.27 166.293 181.875L154.013 175.151ZM152.656 179.006V179.146H166.656V179.006H152.656ZM156.425 172.937L152.327 175.069L158.789 187.488L162.887 185.356L156.425 172.937ZM150.399 186.009L220.866 262.864L231.185 253.402L160.718 176.548L150.399 186.009ZM231.763 254.123L231.716 254.055L220.24 262.075L220.288 262.143L231.763 254.123ZM231.712 254.05L164.86 158.577L153.392 166.607L220.244 262.08L231.712 254.05ZM83.5364 62.594L144.96 150.346L156.43 142.317L95.0058 54.5658L83.5364 62.594ZM164.793 130.589L94.4306 53.8492L84.1116 63.3106L154.474 140.051L164.793 130.589ZM158.764 143.662L162.863 141.53L156.404 129.109L152.305 131.241L158.764 143.662ZM162.534 137.592V137.451H148.534V137.592H162.534ZM161.177 141.447C160.643 142.424 159.836 143.225 158.856 143.753L152.213 131.43C150.813 132.184 149.662 133.328 148.898 134.723L161.177 141.447ZM161.87 138.249C161.953 139.359 161.712 140.47 161.177 141.447L148.898 134.723C148.134 136.118 147.791 137.704 147.909 139.289L161.87 138.249ZM163.02 153.436L161.87 138.241L147.91 139.298L149.06 154.493L163.02 153.436ZM144.961 150.347L150.306 157.98L161.774 149.949L156.429 142.316L144.961 150.347Z" fill="white" mask="url(#path-4-outside-2)"/>
<g opacity="0.6">
<path d="M179.457 41.8663L186.133 43.025L186.492 40.9559L182.492 40.2662L182.795 38.5558L185.802 39.08L186.161 37.1764L183.126 36.6247L183.402 35.0246L187.209 35.6867L187.568 33.6176L181.112 32.4866L179.457 41.8663ZM169.277 40.018L171.622 40.4594L172.671 34.5004L175.043 40.9835L177.636 41.4525L179.292 32.0727L176.947 31.7417L176.009 37.0385L173.94 31.2175L170.933 30.6934L169.277 40.018Z" fill="#004996"/>
<path d="M275.655 180.245L274.469 186.921L276.538 187.307L277.255 183.28L278.966 183.583L278.414 186.618L280.345 186.949L280.869 183.914L282.497 184.218L281.807 187.997L283.876 188.383L285.035 181.9L275.655 180.245ZM276.4 175.169C276.249 175.614 276.195 176.086 276.239 176.554C276.284 177.022 276.426 177.475 276.658 177.884C276.89 178.293 277.206 178.648 277.584 178.927C277.963 179.205 278.396 179.401 278.855 179.5C280.869 179.859 281.614 178.755 282.386 176.41C282.745 175.279 283.048 175.031 283.573 175.141C284.097 175.252 284.29 175.638 284.18 176.355C284.174 176.507 284.136 176.655 284.068 176.791C284.001 176.927 283.905 177.048 283.788 177.144C283.671 177.24 283.534 177.311 283.388 177.351C283.241 177.391 283.088 177.399 282.938 177.376L282.497 179.886C284.511 180.052 285.669 178.948 286.083 176.686C286.497 174.424 285.476 172.852 283.793 172.548C282.111 172.245 281.035 172.962 280.179 175.555C279.821 176.659 279.6 176.99 279.021 176.879C278.441 176.769 278.165 176.3 278.303 175.5C278.441 174.7 279.103 174.203 279.793 174.258L280.235 171.693C278.193 171.417 276.841 172.548 276.4 175.169Z" fill="#004996"/>
<path d="M41.6302 136.877L42.0716 134.118L36.3886 131.608L42.5958 131.222L43.0924 128.463L34.0988 124.711L33.6574 127.194L39.3405 129.511L33.1884 129.842L32.7746 132.215L38.2921 134.505L32.2229 134.698L31.7539 137.456L41.6302 136.877ZM39.5612 148.519L39.975 146.146L34.0988 145.126L40.5819 142.726L41.0509 140.132L31.6711 138.477L31.2573 140.822L36.5541 141.76L30.7331 143.829L30.209 146.864L39.5612 148.519Z" fill="#004996"/>
<path d="M174.189 64.1562L147.291 149.429L157.581 158.313L174.189 64.1562Z" fill="#004996"/>
<path d="M251.738 174.892L166.438 147.994L157.582 158.312L251.738 174.892Z" fill="#004996"/>
<path d="M141.002 252.441L167.9 167.168L157.582 158.312L141.002 252.441Z" fill="#004996"/>
<path d="M63.4531 141.705L148.726 168.603L157.609 158.313L63.4531 141.705Z" fill="#004996"/>
<path d="M269.945 79.6328L156.119 138.863L157.581 158.312L269.945 79.6328Z" fill="#004996"/>
<path d="M45.2441 236.965L159.07 177.734L157.581 158.312L45.2441 236.965Z" fill="#004996"/>
<path d="M78.9297 45.9492L138.133 159.775L157.582 158.313L78.9297 45.9492Z" fill="#004996"/>
<path d="M236.262 270.65L177.031 156.824L157.582 158.314L236.262 270.65Z" fill="#004996"/>
<path d="M169.167 152.657L172.229 82.1988L159.125 156.437L169.167 152.657ZM175.374 64.3773L171.484 153.54C171.479 153.773 171.406 153.999 171.274 154.19C171.141 154.381 170.955 154.53 170.739 154.616L157.939 159.416C157.642 159.525 157.315 159.514 157.026 159.385C156.738 159.256 156.511 159.02 156.394 158.727C156.34 158.519 156.34 158.3 156.394 158.092L172.946 63.9634C173.007 63.6673 173.178 63.4053 173.424 63.231C173.671 63.0566 173.975 62.9831 174.275 63.0253C174.574 63.0676 174.846 63.2224 175.035 63.4583C175.224 63.6942 175.315 63.9932 175.291 64.2945" fill="#004996"/>
<path d="M163.235 169.872L233.694 172.934L159.456 159.83L163.235 169.872ZM251.515 176.079L162.353 172.217C162.119 172.203 161.893 172.123 161.703 171.986C161.513 171.849 161.365 171.662 161.277 171.444L156.476 158.644C156.368 158.347 156.379 158.02 156.508 157.731C156.637 157.443 156.873 157.216 157.166 157.099C157.374 157.045 157.593 157.045 157.801 157.099L251.929 173.651C252.225 173.712 252.487 173.883 252.662 174.13C252.836 174.376 252.91 174.68 252.867 174.98C252.825 175.279 252.67 175.551 252.434 175.74C252.199 175.929 251.899 176.02 251.598 175.996" fill="#004996"/>
<path d="M146.16 149.07L173.03 63.8799C173.063 63.7259 173.125 63.5799 173.214 63.4501C173.303 63.3203 173.417 63.2094 173.549 63.1235C173.681 63.0377 173.829 62.9787 173.983 62.9499C174.138 62.9211 174.297 62.9231 174.451 62.9557C174.605 62.9883 174.751 63.0509 174.881 63.14C175.01 63.229 175.121 63.3427 175.207 63.4747C175.293 63.6066 175.352 63.7541 175.381 63.9089C175.41 64.0636 175.408 64.2225 175.375 64.3765L158.767 158.643C158.728 158.857 158.633 159.057 158.492 159.222C158.381 159.333 158.25 159.421 158.106 159.481C157.961 159.542 157.807 159.572 157.65 159.572C157.494 159.572 157.339 159.542 157.194 159.481C157.05 159.421 156.919 159.333 156.809 159.222L146.491 150.367C146.317 150.211 146.193 150.008 146.134 149.782C146.075 149.556 146.084 149.318 146.16 149.098V149.07ZM169.885 81.8118L148.643 149.07L156.919 156.077L169.885 81.8118Z" fill="#004996"/>
<path d="M166.823 146.865L252.014 173.735C252.325 173.801 252.597 173.988 252.77 174.254C252.943 174.52 253.004 174.845 252.938 175.156C252.872 175.467 252.685 175.739 252.419 175.912C252.152 176.085 251.828 176.146 251.517 176.08L157.388 159.527C157.174 159.488 156.975 159.393 156.809 159.252C156.698 159.141 156.61 159.01 156.55 158.866C156.49 158.721 156.459 158.567 156.459 158.41C156.459 158.254 156.49 158.099 156.55 157.954C156.61 157.81 156.698 157.679 156.809 157.569L165.665 147.279C165.815 147.097 166.016 146.965 166.243 146.901C166.47 146.837 166.711 146.844 166.934 146.92L166.823 146.865ZM234.22 170.645L166.961 149.403L159.982 157.679L234.22 170.645Z" fill="#004996"/>
<path d="M146.022 163.941L142.959 234.4L156.063 160.162L146.022 163.941ZM139.814 252.221L143.677 162.976C143.691 162.742 143.771 162.516 143.907 162.326C144.044 162.136 144.232 161.988 144.449 161.9L157.167 157.099C157.464 156.991 157.791 157.002 158.079 157.131C158.368 157.26 158.595 157.496 158.712 157.789C158.766 157.997 158.766 158.216 158.712 158.424L142.159 252.552C142.099 252.848 141.928 253.11 141.681 253.285C141.434 253.459 141.13 253.533 140.831 253.49C140.532 253.448 140.26 253.293 140.071 253.057C139.882 252.822 139.79 252.523 139.814 252.221" fill="#004996"/>
<path d="M151.952 146.726L81.4934 143.664L155.731 156.768L151.952 146.726ZM63.6719 140.519L152.918 144.381C153.152 144.395 153.377 144.475 153.567 144.612C153.758 144.749 153.905 144.936 153.993 145.154L158.794 157.871C158.902 158.168 158.891 158.495 158.762 158.784C158.634 159.072 158.397 159.299 158.104 159.416C157.896 159.47 157.678 159.47 157.469 159.416L63.3408 142.864C63.1849 142.841 63.0353 142.786 62.9013 142.703C62.7672 142.62 62.6514 142.511 62.561 142.382C62.4706 142.253 62.4075 142.107 62.3756 141.952C62.3437 141.798 62.3435 141.639 62.3753 141.484C62.4293 141.189 62.5931 140.926 62.8336 140.747C63.0742 140.567 63.3737 140.486 63.6719 140.519" fill="#004996"/>
<path d="M168.975 167.526L142.16 252.717C142.094 253.028 141.907 253.3 141.641 253.473C141.375 253.646 141.05 253.707 140.739 253.641C140.428 253.575 140.156 253.388 139.983 253.122C139.81 252.856 139.749 252.531 139.815 252.22L156.368 158.092C156.407 157.878 156.502 157.678 156.643 157.512C156.754 157.401 156.885 157.313 157.029 157.253C157.174 157.193 157.328 157.162 157.485 157.162C157.641 157.162 157.796 157.193 157.941 157.253C158.085 157.313 158.216 157.401 158.326 157.512L168.616 166.368C168.798 166.518 168.93 166.72 168.994 166.946C169.058 167.173 169.051 167.414 168.975 167.637V167.526ZM145.25 234.923L166.492 167.664L158.216 160.685L145.25 234.923Z" fill="#004996"/>
<path d="M148.367 169.68L63.1768 142.865C62.8658 142.799 62.5937 142.613 62.4204 142.346C62.2471 142.08 62.1867 141.755 62.2526 141.444C62.3184 141.133 62.5051 140.861 62.7715 140.688C63.038 140.515 63.3624 140.454 63.6733 140.52L157.802 157.073C158.016 157.112 158.216 157.207 158.381 157.349C158.492 157.459 158.58 157.59 158.64 157.734C158.7 157.879 158.731 158.034 158.731 158.19C158.731 158.346 158.7 158.501 158.64 158.646C158.58 158.79 158.492 158.921 158.381 159.031L149.664 169.377C149.514 169.558 149.312 169.69 149.085 169.754C148.858 169.818 148.618 169.812 148.395 169.735L148.367 169.68ZM81.1087 146.01L148.367 167.252L155.347 158.976L81.1087 146.01Z" fill="#004996"/>
<path d="M175.154 164.935L255.82 90.9727L159.98 158.066L175.154 164.935ZM270.689 80.5721L176.174 167.225C176.001 167.381 175.786 167.482 175.555 167.517C175.324 167.551 175.089 167.517 174.878 167.418L157.111 159.39C156.968 159.327 156.838 159.236 156.73 159.123C156.621 159.01 156.536 158.876 156.48 158.73C156.424 158.584 156.397 158.428 156.401 158.271C156.405 158.115 156.44 157.96 156.504 157.817C156.596 157.618 156.739 157.447 156.918 157.321L269.255 78.641C269.516 78.4679 269.835 78.4028 270.143 78.4594C270.452 78.5159 270.727 78.6898 270.91 78.9445C271.09 79.1918 271.168 79.4993 271.127 79.8027C271.086 80.106 270.929 80.3817 270.689 80.5721" fill="#004996"/>
<path d="M155.568 137.788L269.311 78.6399C269.574 78.4643 269.897 78.4006 270.207 78.4626C270.518 78.5247 270.791 78.7076 270.966 78.971C271.142 79.2344 271.206 79.5567 271.144 79.8672C271.081 80.1776 270.899 80.4506 270.635 80.6262L158.271 159.278C158.101 159.399 157.9 159.466 157.692 159.471C157.536 159.487 157.379 159.471 157.229 159.425C157.079 159.379 156.94 159.304 156.819 159.204C156.699 159.104 156.599 158.981 156.526 158.842C156.454 158.703 156.409 158.552 156.395 158.395L154.933 139.084C154.916 138.85 154.966 138.617 155.079 138.411C155.191 138.205 155.361 138.037 155.568 137.926V137.788ZM254.496 89.0404L157.361 139.526L158.63 156.078L254.496 89.0404Z" fill="#004996"/>
<path d="M140.035 151.665L59.3688 225.627L155.18 158.645L140.035 151.665ZM44.4991 236.028L139.014 149.375C139.187 149.219 139.403 149.118 139.633 149.083C139.864 149.049 140.099 149.083 140.311 149.182L158.077 157.21C158.221 157.273 158.35 157.363 158.459 157.477C158.567 157.59 158.652 157.724 158.708 157.87C158.765 158.016 158.792 158.172 158.788 158.329C158.783 158.485 158.748 158.64 158.684 158.783C158.592 158.982 158.45 159.153 158.27 159.279L45.9337 237.959C45.6678 238.134 45.3449 238.199 45.0317 238.143C44.7185 238.087 44.439 237.912 44.2509 237.655C44.0801 237.402 44.0108 237.095 44.0569 236.793C44.1029 236.491 44.2608 236.218 44.4991 236.028" fill="#004996"/>
<path d="M159.623 178.81L45.8792 237.986C45.6158 238.161 45.2934 238.225 44.983 238.163C44.6726 238.101 44.3995 237.918 44.2239 237.655C44.0483 237.391 43.9845 237.069 44.0466 236.758C44.1087 236.448 44.2916 236.175 44.555 235.999L156.919 157.32C157.089 157.199 157.29 157.132 157.498 157.127C157.653 157.111 157.809 157.128 157.957 157.174C158.105 157.22 158.242 157.296 158.361 157.396C158.479 157.496 158.576 157.619 158.646 157.758C158.716 157.897 158.757 158.048 158.767 158.203L160.257 177.514C160.274 177.748 160.224 177.981 160.111 178.187C159.999 178.393 159.829 178.561 159.623 178.672V178.81ZM60.7488 227.613L157.94 177.072L156.671 160.52L60.7488 227.613Z" fill="#004996"/>
<path d="M164.23 140.74L90.2676 60.0739L157.36 155.885L164.23 140.74ZM79.8671 45.2043L166.52 139.719C166.676 139.892 166.777 140.108 166.811 140.338C166.846 140.569 166.811 140.805 166.713 141.016L158.685 158.782C158.622 158.926 158.531 159.055 158.418 159.164C158.305 159.272 158.171 159.357 158.025 159.413C157.879 159.47 157.723 159.497 157.566 159.493C157.409 159.488 157.255 159.453 157.112 159.389C156.913 159.297 156.742 159.155 156.616 158.975L77.9359 46.6388C77.7628 46.3772 77.6977 46.0586 77.7543 45.75C77.8109 45.4415 77.9847 45.1668 78.2394 44.9835C78.4868 44.8032 78.7943 44.7255 79.0976 44.7666C79.401 44.8078 79.6767 44.9646 79.8671 45.2043" fill="#004996"/>
<path d="M137.083 160.326L77.9348 46.5823C77.7592 46.3189 77.6955 45.9965 77.7576 45.6861C77.8196 45.3757 78.0025 45.1026 78.2659 44.927C78.5293 44.7514 78.8517 44.6877 79.1621 44.7497C79.4725 44.8118 79.7455 44.9947 79.9211 45.2581L158.573 157.622C158.694 157.792 158.761 157.993 158.766 158.201C158.781 158.356 158.765 158.512 158.719 158.66C158.673 158.808 158.597 158.945 158.497 159.064C158.397 159.182 158.274 159.279 158.135 159.349C157.996 159.419 157.845 159.46 157.69 159.47L138.379 160.96C138.145 160.978 137.912 160.927 137.706 160.814C137.5 160.702 137.332 160.532 137.22 160.326H137.083ZM88.3353 61.452L138.821 158.643L155.373 157.374L88.3353 61.452Z" fill="#004996"/>
<path d="M150.96 175.859L224.922 256.525L157.94 160.685L150.96 175.859ZM235.323 271.394L148.67 176.879C148.514 176.706 148.413 176.491 148.378 176.26C148.344 176.03 148.378 175.794 148.477 175.583L156.505 157.816C156.568 157.673 156.658 157.543 156.772 157.435C156.885 157.326 157.018 157.241 157.165 157.185C157.311 157.129 157.467 157.102 157.624 157.106C157.78 157.11 157.934 157.145 158.077 157.209C158.271 157.309 158.441 157.451 158.574 157.623L237.254 269.96C237.428 270.226 237.494 270.549 237.438 270.862C237.381 271.175 237.207 271.454 236.95 271.643C236.697 271.813 236.389 271.883 236.088 271.837C235.786 271.791 235.513 271.633 235.323 271.394" fill="#004996"/>
<path d="M178.107 156.271L237.282 270.014C237.458 270.277 237.522 270.6 237.46 270.91C237.398 271.221 237.215 271.494 236.951 271.669C236.688 271.845 236.365 271.909 236.055 271.847C235.745 271.785 235.472 271.602 235.296 271.338L156.616 158.974C156.499 158.801 156.423 158.603 156.396 158.395C156.384 158.239 156.404 158.082 156.453 157.934C156.503 157.786 156.581 157.649 156.684 157.531C156.786 157.413 156.911 157.317 157.051 157.247C157.191 157.178 157.343 157.136 157.499 157.126L176.81 155.636C177.044 155.619 177.278 155.669 177.484 155.782C177.689 155.895 177.858 156.064 177.969 156.271H178.107ZM226.909 255.2L176.341 158.064L159.789 159.333L226.909 255.2Z" fill="#004996"/>
<path d="M66.7355 134.669C71.2146 117.42 80.5275 101.81 93.5782 89.6742L95.2886 92.9571C83.3188 104.39 74.7285 118.898 70.4598 134.89L66.7355 134.669ZM73.9359 200.88C65.8435 185.01 62.4461 167.162 64.1423 149.429L67.6183 150.532C66.1732 167.025 69.3042 183.596 76.667 198.424L73.9359 200.88ZM133.966 249.103C116.724 244.639 101.114 235.346 88.9711 222.315L92.254 220.605C103.687 232.574 118.195 241.165 134.187 245.433L133.966 249.103ZM200.176 241.902C184.291 250.005 166.421 253.403 148.671 251.696L149.774 248.22C166.266 249.665 182.838 246.534 197.666 239.171L200.176 241.902ZM248.399 181.872C243.93 199.141 234.616 214.772 221.557 226.922L219.846 223.639C231.816 212.207 240.406 197.699 244.675 181.706L248.399 181.872ZM241.199 115.662C249.302 131.547 252.7 149.417 250.993 167.168L247.517 166.064C248.962 149.572 245.831 133 238.468 118.172L241.199 115.662ZM181.224 67.4386C198.497 71.8966 214.132 81.212 226.274 94.2813L222.991 95.9918C211.559 84.022 197.051 75.4317 181.058 71.163L181.224 67.4386ZM115.014 74.639C130.883 66.5466 148.732 63.1492 166.464 64.8454L165.361 68.3214C148.869 66.8763 132.297 70.0073 117.469 77.3702L115.014 74.639Z" fill="#004996"/>
<path d="M47.59 123.276C54.2286 102.443 66.6695 83.9347 83.4538 69.9216L84.5849 72.101C67.9916 86.0819 55.7954 104.563 49.4659 125.317C49.068 124.467 48.4241 123.756 47.6176 123.276H47.59ZM57.5767 215.942C47.3001 198.223 41.9472 178.078 42.0725 157.595C42.5527 157.423 43.0004 157.171 43.3967 156.85C43.8257 156.527 44.1985 156.135 44.5002 155.691C43.9884 176.21 49.1123 196.477 59.3147 214.287L57.5767 215.942ZM121.635 268C101.199 261.317 83.0419 249.046 69.2186 232.578L71.398 231.447C85.0554 247.582 102.982 259.543 123.125 265.959C122.617 266.39 122.196 266.915 121.883 267.503L121.635 268ZM215.239 258.317C196.546 269.121 175.186 274.438 153.609 273.656C153.631 272.811 153.411 271.978 152.974 271.255C174.193 272.166 195.236 267.049 213.667 256.496L215.239 258.317ZM267.656 192.852C261.104 213.858 248.656 232.54 231.792 246.675L230.688 244.496C247.206 230.502 259.341 212.045 265.642 191.334C266.165 192.023 266.873 192.549 267.683 192.852H267.656ZM257.614 100.709C268.531 119.618 273.841 141.243 272.925 163.057C272.075 163.051 271.242 163.291 270.525 163.747C271.567 142.3 266.455 121.002 255.793 102.364L257.614 100.709ZM193.031 48.4309C213.699 55.1 232.054 67.4867 245.972 84.1567L243.793 85.2602C229.92 68.8045 211.611 56.6816 191.045 50.3344L191.624 49.9482C192.18 49.5466 192.641 49.0288 192.976 48.4309H193.031ZM100.006 58.2796C118.421 47.6302 139.435 42.31 160.699 42.9134C160.846 43.6366 161.157 44.3163 161.609 44.8997L161.995 45.3411C140.898 44.5016 119.989 49.6163 101.662 60.1004L100.006 58.2796Z" fill="#004996"/>
<path d="M39.8087 119.276C47.2041 96.8327 60.8868 76.9836 79.2313 62.0875L80.9142 65.3152C63.2314 79.8577 50.0787 99.156 43.0089 120.932L39.8087 119.276ZM51.0644 221.902C39.0082 201.802 32.9314 178.681 33.5464 155.251L36.3051 155.747C36.5269 156.079 36.7965 156.377 37.1052 156.63C36.7412 178.693 42.4687 200.428 53.6577 219.447L51.0644 221.902ZM117.661 275.781C95.5809 268.322 76.0673 254.758 61.3822 236.661L64.6099 234.979C78.95 252.404 97.9098 265.436 119.316 272.58L117.661 275.781ZM221.197 264.746C200.287 277.275 176.135 283.332 151.787 282.153C151.802 281.887 151.802 281.62 151.787 281.353C152.251 280.749 152.555 280.038 152.669 279.284V278.622C175.821 279.601 198.761 273.852 218.714 262.07L221.197 264.746ZM276.372 193.763C269.277 217.61 255.153 238.763 235.846 254.455L234.135 251.228C252.394 236.266 265.83 216.246 272.758 193.68C273.775 193.926 274.845 193.819 275.793 193.377C275.993 193.545 276.215 193.685 276.455 193.79L276.372 193.763ZM264.095 94.6132C276.751 115.754 282.803 140.193 281.476 164.796C281.246 164.781 281.016 164.781 280.786 164.796C280.177 164.334 279.469 164.022 278.717 163.885H277.944C279.056 140.493 273.302 117.287 261.392 97.1236L264.095 94.6132ZM193.94 39.6588C217.455 46.8359 238.297 60.8587 253.805 79.9366L250.578 81.6195C235.824 63.6809 216.176 50.4161 194.023 43.4383C194.033 43.2913 194.033 43.1439 194.023 42.9969C194.335 41.9241 194.237 40.7734 193.747 39.7692L193.94 39.6588ZM93.9631 51.7697C114.846 39.2702 138.951 33.2055 163.263 34.3344L162.684 37.7001L162.408 37.8932C139.283 36.9238 116.373 42.6729 96.4459 54.4457L93.9631 51.7697Z" fill="#004996"/>
<path d="M95.4269 135.911C98.0823 128.513 102.034 121.647 107.096 115.635L108.31 117.924C103.865 123.339 100.35 129.455 97.9098 136.022L95.4269 135.911ZM95.4269 181.127C92.7156 173.742 91.3423 165.932 91.3716 158.064L93.7441 158.809C93.7973 165.811 95.0092 172.756 97.3305 179.362L95.4269 181.127ZM135.07 220.467C127.665 217.815 120.797 213.853 114.793 208.77L117.083 207.584C122.505 212.019 128.619 215.533 135.181 217.984L135.07 220.467ZM180.286 220.467C172.9 223.178 165.091 224.552 157.223 224.522L157.968 222.15C164.97 222.097 171.914 220.885 178.521 218.564L180.286 220.467ZM219.764 180.713C217.104 188.11 213.153 194.975 208.094 200.99L206.881 198.701C211.316 193.319 214.83 187.242 217.281 180.713H219.764ZM219.764 135.498C222.438 142.918 223.765 150.756 223.681 158.643L221.309 157.899C221.256 150.897 220.044 143.952 217.722 137.346L219.764 135.498ZM180.01 96.1301C187.408 98.7855 194.274 102.737 200.287 107.8L197.997 109.013C192.616 104.579 186.538 101.064 180.01 98.613V96.1301ZM134.794 96.1301C142.215 93.4561 150.053 92.1294 157.94 92.2127L157.195 94.5852C150.194 94.6384 143.249 95.8503 136.643 98.1716L134.794 96.1301Z" fill="#004996"/>
<path d="M74.2394 135.001C78.3115 120.33 86.2033 107.002 97.1095 96.3781L98.8199 99.6886C88.974 109.561 81.7893 121.766 77.9362 135.166L74.2394 135.001ZM79.5638 195.693C72.9565 181.969 70.101 166.739 71.2876 151.553L74.7636 152.657C73.8254 166.566 76.416 180.487 82.295 193.128L79.5638 195.693ZM134.298 241.571C119.627 237.499 106.299 229.607 95.675 218.701L98.9855 216.991C108.847 226.843 121.043 234.037 134.435 237.902L134.298 241.571ZM194.99 236.247C181.265 242.854 166.036 245.71 150.85 244.523L151.954 241.047C165.854 241.99 179.767 239.399 192.397 233.516L194.99 236.247ZM240.868 181.513C236.796 196.184 228.904 209.512 217.998 220.136L216.288 216.825C226.14 206.964 233.334 194.768 237.199 181.375L240.868 181.513ZM235.544 120.821C242.151 134.545 245.007 149.775 243.82 164.961L240.344 163.857C241.282 149.948 238.692 136.027 232.813 123.386L235.544 120.821ZM180.893 74.9426C195.564 79.0146 208.891 86.9065 219.515 97.8126L216.205 99.5231C206.333 89.6771 194.127 82.4924 180.727 78.6393L180.893 74.9426ZM120.2 80.267C133.925 73.6596 149.154 70.8041 164.34 71.9907L163.237 75.4667C149.279 74.5136 135.308 77.1143 122.628 83.0257L120.2 80.267Z" fill="#004996"/>
<path d="M212.508 238.813C212.419 238.685 212.356 238.54 212.323 238.387C212.29 238.234 212.287 238.077 212.315 237.923C212.344 237.769 212.402 237.622 212.487 237.491C212.572 237.36 212.682 237.247 212.811 237.158C212.94 237.069 213.085 237.006 213.238 236.973C213.39 236.94 213.548 236.937 213.702 236.966C213.856 236.994 214.003 237.052 214.134 237.137C214.265 237.222 214.378 237.333 214.467 237.462L220.812 246.538C220.922 246.663 221.006 246.81 221.055 246.97C221.105 247.129 221.121 247.298 221.101 247.464C221.082 247.63 221.027 247.789 220.941 247.933C220.856 248.076 220.74 248.2 220.604 248.296C220.467 248.392 220.311 248.458 220.147 248.489C219.983 248.521 219.814 248.517 219.651 248.479C219.488 248.44 219.336 248.368 219.203 248.267C219.07 248.165 218.96 248.037 218.881 247.89L212.508 238.813ZM201.473 245.269C201.398 245.13 201.352 244.978 201.338 244.821C201.323 244.664 201.341 244.506 201.39 244.356C201.439 244.206 201.519 244.068 201.623 243.95C201.727 243.832 201.855 243.736 201.997 243.669C202.136 243.598 202.288 243.555 202.445 243.542C202.601 243.53 202.757 243.549 202.906 243.598C203.055 243.647 203.193 243.724 203.311 243.826C203.43 243.929 203.527 244.053 203.597 244.193L208.701 254.014C208.828 254.29 208.845 254.605 208.747 254.892C208.65 255.18 208.445 255.42 208.176 255.561C207.907 255.703 207.594 255.736 207.302 255.653C207.009 255.571 206.76 255.379 206.604 255.118L201.473 245.269ZM106.406 62.5843C106.324 62.4459 106.271 62.2923 106.25 62.1327C106.229 61.9731 106.24 61.8109 106.284 61.6559C106.328 61.501 106.403 61.3566 106.504 61.2315C106.605 61.1064 106.731 61.0032 106.873 60.9282C107.016 60.8532 107.172 60.808 107.332 60.7954C107.493 60.7827 107.654 60.8028 107.807 60.8545C107.959 60.9062 108.1 60.9884 108.219 61.0961C108.339 61.2037 108.435 61.3346 108.503 61.4808L113.634 71.302C113.781 71.5836 113.809 71.9119 113.713 72.2146C113.618 72.5173 113.405 72.7695 113.124 72.9158C112.984 72.9883 112.832 73.0326 112.675 73.0461C112.519 73.0597 112.361 73.0423 112.211 72.9949C111.909 72.8992 111.656 72.6872 111.51 72.4055L106.406 62.5843ZM189.803 250.18C189.751 250.033 189.728 249.877 189.735 249.721C189.743 249.566 189.781 249.413 189.848 249.272C189.914 249.131 190.008 249.005 190.123 248.9C190.239 248.796 190.374 248.715 190.521 248.662C190.665 248.605 190.82 248.578 190.975 248.582C191.131 248.586 191.284 248.621 191.426 248.685C191.567 248.749 191.694 248.842 191.8 248.956C191.905 249.071 191.986 249.205 192.038 249.352L195.845 259.78C195.898 259.927 195.921 260.082 195.913 260.238C195.906 260.394 195.867 260.546 195.801 260.687C195.734 260.828 195.64 260.955 195.525 261.059C195.41 261.164 195.275 261.245 195.128 261.297C194.981 261.35 194.825 261.373 194.67 261.365C194.514 261.358 194.361 261.32 194.22 261.253C194.08 261.186 193.953 261.093 193.848 260.977C193.744 260.862 193.663 260.727 193.61 260.58L189.803 250.18ZM119.317 56.7081C119.265 56.5614 119.241 56.4058 119.249 56.2501C119.257 56.0944 119.295 55.9418 119.361 55.8009C119.428 55.6599 119.522 55.5335 119.637 55.4289C119.753 55.3242 119.888 55.2433 120.034 55.1908C120.181 55.1382 120.337 55.1151 120.493 55.1227C120.648 55.1302 120.801 55.1684 120.942 55.235C121.083 55.3017 121.209 55.3954 121.314 55.5109C121.418 55.6264 121.499 55.7613 121.552 55.9081L125.359 66.3086C125.411 66.4553 125.435 66.611 125.427 66.7667C125.419 66.9223 125.381 67.075 125.315 67.2159C125.248 67.3568 125.154 67.4832 125.039 67.5879C124.923 67.6926 124.788 67.7735 124.642 67.8259C124.497 67.8831 124.342 67.9105 124.187 67.9065C124.031 67.9026 123.878 67.8674 123.737 67.803C123.595 67.7387 123.468 67.6465 123.363 67.5319C123.257 67.4174 123.176 67.2828 123.124 67.1362L119.317 56.7081ZM177.527 253.711C177.492 253.559 177.488 253.401 177.515 253.247C177.541 253.094 177.598 252.947 177.681 252.815C177.764 252.683 177.873 252.569 178 252.478C178.127 252.388 178.271 252.324 178.424 252.29C178.576 252.256 178.733 252.251 178.887 252.278C179.041 252.304 179.188 252.361 179.32 252.444C179.451 252.527 179.566 252.636 179.656 252.763C179.746 252.891 179.81 253.034 179.844 253.187L182.244 264.001C182.31 264.312 182.252 264.636 182.082 264.904C181.912 265.172 181.643 265.363 181.334 265.435C181.027 265.501 180.706 265.442 180.442 265.271C180.178 265.101 179.993 264.832 179.927 264.525L177.527 253.711ZM132.918 52.5976C132.852 52.2869 132.91 51.9627 133.08 51.6945C133.25 51.4263 133.519 51.2355 133.828 51.1631C134.136 51.0976 134.456 51.1566 134.72 51.3273C134.984 51.498 135.169 51.7663 135.235 52.0734L137.635 62.8878C137.705 63.1951 137.649 63.5174 137.481 63.7838C137.313 64.0503 137.046 64.239 136.739 64.3085C136.587 64.3429 136.429 64.347 136.275 64.3206C136.122 64.2942 135.975 64.2377 135.843 64.1545C135.576 63.9863 135.387 63.7192 135.318 63.4119L132.918 52.5976ZM164.892 255.476C164.881 255.32 164.9 255.164 164.95 255.016C164.999 254.867 165.077 254.73 165.18 254.612C165.282 254.495 165.407 254.398 165.547 254.329C165.687 254.259 165.839 254.218 165.995 254.207C166.306 254.184 166.613 254.284 166.85 254.485C167.087 254.687 167.236 254.973 167.264 255.283L168.23 266.318C168.245 266.474 168.229 266.632 168.183 266.781C168.137 266.931 168.062 267.07 167.962 267.191C167.862 267.311 167.739 267.411 167.6 267.484C167.462 267.556 167.31 267.601 167.154 267.615C166.841 267.638 166.53 267.539 166.289 267.339C166.047 267.138 165.892 266.851 165.857 266.539L164.892 255.476ZM146.905 50.2803C146.89 50.1243 146.905 49.967 146.951 49.8172C146.997 49.6675 147.072 49.5283 147.173 49.4078C147.273 49.2872 147.395 49.1877 147.534 49.1149C147.673 49.0421 147.825 48.9975 147.981 48.9836C148.294 48.9603 148.604 49.0593 148.846 49.26C149.088 49.4607 149.242 49.7473 149.277 50.0596L150.243 61.0946C150.254 61.2504 150.234 61.407 150.185 61.5552C150.136 61.7035 150.057 61.8405 149.955 61.9584C149.852 62.0763 149.727 62.1728 149.587 62.2424C149.448 62.3119 149.295 62.3531 149.139 62.3636C148.829 62.3866 148.522 62.2867 148.285 62.0854C148.047 61.8841 147.898 61.5976 147.87 61.2877L146.905 50.2803ZM152.119 255.614C152.119 255.3 152.244 254.998 152.466 254.775C152.689 254.553 152.99 254.428 153.305 254.428C153.62 254.428 153.921 254.553 154.144 254.775C154.366 254.998 154.491 255.3 154.491 255.614L154.022 266.649C154.022 266.964 153.897 267.266 153.675 267.488C153.452 267.711 153.151 267.836 152.836 267.836C152.521 267.836 152.22 267.711 151.997 267.488C151.775 267.266 151.65 266.964 151.65 266.649L152.119 255.614ZM161.057 49.8113C161.057 49.4966 161.182 49.1949 161.405 48.9725C161.627 48.75 161.929 48.625 162.243 48.625C162.558 48.625 162.86 48.75 163.082 48.9725C163.305 49.1949 163.43 49.4966 163.43 49.8113L162.961 60.8463C162.961 61.1609 162.836 61.4626 162.613 61.6851C162.391 61.9076 162.089 62.0325 161.774 62.0325C161.46 62.0325 161.158 61.9076 160.936 61.6851C160.713 61.4626 160.588 61.1609 160.588 60.8463L161.057 49.8113ZM138.987 256.718C139.014 256.564 139.071 256.416 139.155 256.284C139.238 256.152 139.348 256.038 139.476 255.948C139.604 255.858 139.749 255.795 139.902 255.761C140.054 255.727 140.212 255.724 140.366 255.752C140.675 255.813 140.947 255.99 141.127 256.247C141.307 256.504 141.381 256.821 141.332 257.132L139.87 265.408C139.809 265.716 139.632 265.989 139.375 266.169C139.118 266.349 138.801 266.422 138.491 266.373C138.336 266.347 138.189 266.29 138.057 266.206C137.925 266.122 137.81 266.013 137.721 265.885C137.631 265.757 137.567 265.612 137.534 265.459C137.5 265.306 137.497 265.148 137.525 264.994L138.987 256.718ZM175.265 51.1906C175.325 50.8826 175.503 50.6099 175.76 50.4298C176.017 50.2498 176.334 50.1764 176.644 50.2251C176.798 50.2517 176.946 50.3086 177.078 50.3925C177.21 50.4764 177.324 50.5855 177.414 50.7138C177.504 50.842 177.567 50.9867 177.601 51.1396C177.634 51.2924 177.637 51.4504 177.61 51.6045L176.203 59.6048C176.176 59.7591 176.119 59.9065 176.035 60.0386C175.951 60.1708 175.842 60.285 175.714 60.3748C175.586 60.4645 175.441 60.528 175.288 60.5616C175.135 60.5952 174.977 60.5982 174.823 60.5704C174.515 60.51 174.243 60.3325 174.063 60.0753C173.882 59.8181 173.809 59.5012 173.858 59.191L175.265 51.1906ZM127.18 250.897C127.275 250.597 127.485 250.347 127.765 250.202C128.044 250.057 128.369 250.029 128.669 250.124C128.969 250.219 129.219 250.43 129.364 250.709C129.509 250.989 129.537 251.314 129.442 251.614L126.131 262.18C126.03 262.482 125.815 262.732 125.531 262.877C125.247 263.021 124.918 263.049 124.614 262.953C124.465 262.906 124.328 262.83 124.208 262.729C124.089 262.629 123.991 262.506 123.919 262.368C123.847 262.229 123.804 262.078 123.79 261.923C123.777 261.768 123.794 261.611 123.842 261.463L127.18 250.897ZM189.058 54.4184C189.159 54.1163 189.375 53.866 189.659 53.7215C189.943 53.577 190.272 53.5499 190.576 53.6459C190.724 53.693 190.862 53.7689 190.981 53.8692C191.101 53.9696 191.199 54.0924 191.271 54.2308C191.342 54.3691 191.386 54.5202 191.4 54.6755C191.413 54.8308 191.395 54.9871 191.348 55.1357L188.01 65.7017C187.915 66.0017 187.705 66.2516 187.425 66.3964C187.146 66.5413 186.82 66.5693 186.52 66.4741C186.22 66.379 185.971 66.1686 185.826 65.8893C185.681 65.6099 185.653 65.2844 185.748 64.9844L189.058 54.4184ZM115.317 246.124C115.449 245.835 115.69 245.61 115.987 245.499C116.285 245.388 116.614 245.399 116.903 245.531C117.192 245.663 117.417 245.904 117.528 246.201C117.64 246.499 117.628 246.828 117.496 247.117L112.807 257.159C112.669 257.446 112.424 257.668 112.125 257.776C111.826 257.885 111.496 257.871 111.206 257.739C110.926 257.602 110.711 257.36 110.608 257.065C110.505 256.771 110.521 256.448 110.655 256.166L115.317 246.124ZM202.383 59.329C202.52 59.0487 202.762 58.8337 203.056 58.7305C203.351 58.6272 203.674 58.644 203.956 58.7772C204.099 58.8396 204.229 58.9304 204.337 59.0443C204.444 59.1581 204.528 59.2926 204.582 59.4396C204.636 59.5865 204.66 59.743 204.652 59.8994C204.644 60.0558 204.604 60.209 204.535 60.3497L199.873 70.364C199.741 70.653 199.5 70.8778 199.203 70.9891C198.905 71.1003 198.576 71.0888 198.287 70.9571C197.998 70.8254 197.773 70.5843 197.661 70.2868C197.55 69.9893 197.562 69.6598 197.693 69.3708L202.383 59.329ZM104.254 239.862C104.336 239.729 104.443 239.615 104.57 239.524C104.697 239.434 104.84 239.371 104.992 239.337C105.144 239.304 105.301 239.301 105.454 239.33C105.607 239.358 105.752 239.417 105.882 239.503C106.145 239.678 106.331 239.947 106.403 240.254C106.475 240.562 106.427 240.885 106.268 241.158L100.309 250.483C100.226 250.615 100.118 250.73 99.9899 250.82C99.8623 250.91 99.7182 250.975 99.5658 251.009C99.4134 251.044 99.2556 251.048 99.1016 251.022C98.9475 250.995 98.8002 250.939 98.6679 250.855C98.5357 250.772 98.4212 250.664 98.3309 250.536C98.2406 250.408 98.1763 250.264 98.1418 250.112C98.1072 249.959 98.103 249.802 98.1293 249.648C98.1557 249.494 98.2122 249.346 98.2955 249.214L104.254 239.862ZM214.88 66.0603C215.049 65.7933 215.316 65.604 215.624 65.5342C215.932 65.4643 216.255 65.5196 216.522 65.6879C216.789 65.8562 216.978 66.1237 217.048 66.4315C217.118 66.7393 217.063 67.0623 216.894 67.3294L210.935 76.6815C210.854 76.814 210.747 76.9288 210.62 77.0189C210.493 77.109 210.35 77.1728 210.198 77.2062C210.046 77.2397 209.889 77.2422 209.736 77.2137C209.583 77.1852 209.437 77.1262 209.308 77.0402C209.045 76.8651 208.859 76.5965 208.787 76.289C208.715 75.9815 208.763 75.6582 208.922 75.3849L214.88 66.0603ZM94.047 232.137C94.2529 231.912 94.5378 231.774 94.8424 231.753C95.1471 231.733 95.448 231.83 95.6826 232.026C95.9172 232.221 96.0674 232.5 96.1019 232.803C96.1364 233.106 96.0525 233.411 95.8678 233.655L88.7502 242.152C88.549 242.397 88.2587 242.552 87.9431 242.583C87.6275 242.614 87.3125 242.518 87.0674 242.317C86.8223 242.116 86.6671 241.826 86.6361 241.51C86.605 241.194 86.7006 240.879 86.9018 240.634L94.047 232.137ZM226.467 74.3366C226.567 74.2152 226.689 74.1147 226.828 74.0407C226.966 73.9667 227.118 73.9207 227.274 73.9053C227.431 73.8899 227.588 73.9055 227.739 73.9511C227.889 73.9967 228.029 74.0714 228.15 74.1711C228.271 74.2707 228.372 74.3932 228.446 74.5317C228.52 74.6702 228.566 74.8219 228.581 74.9782C228.597 75.1345 228.581 75.2922 228.536 75.4425C228.49 75.5927 228.415 75.7325 228.316 75.8539L221.17 84.3509C220.965 84.5764 220.68 84.7139 220.375 84.7347C220.07 84.7555 219.769 84.658 219.535 84.4625C219.3 84.267 219.15 83.9886 219.116 83.6851C219.081 83.3817 219.165 83.0767 219.35 82.8335L226.467 74.3366ZM84.9707 223.309C85.081 223.198 85.2121 223.11 85.3565 223.05C85.5009 222.99 85.6557 222.959 85.8121 222.959C85.9685 222.959 86.1234 222.99 86.2678 223.05C86.4122 223.11 86.5433 223.198 86.6536 223.309C86.871 223.535 86.9925 223.837 86.9925 224.151C86.9925 224.464 86.871 224.766 86.6536 224.992L78.3773 232.468C78.2671 232.579 78.136 232.667 77.9915 232.727C77.8471 232.787 77.6923 232.818 77.5359 232.818C77.3795 232.818 77.2246 232.787 77.0802 232.727C76.9358 232.667 76.8047 232.579 76.6945 232.468C76.477 232.242 76.3555 231.941 76.3555 231.627C76.3555 231.313 76.477 231.012 76.6945 230.785L84.9707 223.309ZM236.702 84.1026C236.933 83.8867 237.239 83.7713 237.555 83.7816C237.871 83.792 238.169 83.9273 238.385 84.1577C238.601 84.3882 238.716 84.695 238.706 85.0106C238.696 85.3262 238.56 85.6247 238.33 85.8406L230.054 93.3444C229.943 93.4553 229.812 93.5434 229.668 93.6035C229.523 93.6635 229.369 93.6945 229.212 93.6945C229.056 93.6945 228.901 93.6635 228.756 93.6035C228.612 93.5434 228.481 93.4553 228.371 93.3444C228.153 93.1183 228.032 92.8167 228.032 92.503C228.032 92.1892 228.153 91.8877 228.371 91.6616L236.702 84.1026ZM77.0807 213.212C77.2091 213.123 77.354 213.06 77.5068 213.027C77.6597 212.994 77.8176 212.991 77.9714 213.02C78.1253 213.048 78.272 213.106 78.4032 213.191C78.5344 213.276 78.6475 213.387 78.7359 213.516C78.8252 213.644 78.8881 213.789 78.9212 213.942C78.9542 214.095 78.9567 214.253 78.9285 214.406C78.9003 214.56 78.842 214.707 78.7568 214.838C78.6717 214.969 78.5615 215.083 78.4325 215.171L69.3562 221.516C69.231 221.627 69.0838 221.71 68.9243 221.76C68.7648 221.81 68.5966 221.825 68.4306 221.806C68.2647 221.786 68.1047 221.732 67.9613 221.646C67.8179 221.56 67.6942 221.445 67.5983 221.308C67.5025 221.171 67.4366 221.015 67.4051 220.851C67.3736 220.687 67.3772 220.518 67.4155 220.356C67.4538 220.193 67.5261 220.04 67.6276 219.907C67.7291 219.775 67.8575 219.665 68.0044 219.585L77.0807 213.212ZM245.834 95.1928C246.095 95.0196 246.414 94.9545 246.722 95.0111C247.031 95.0677 247.306 95.2415 247.489 95.4962C247.578 95.6247 247.641 95.7695 247.674 95.9224C247.707 96.0752 247.71 96.2331 247.681 96.387C247.653 96.5408 247.595 96.6876 247.51 96.8188C247.425 96.95 247.314 97.063 247.185 97.1515L238.109 103.469C237.849 103.652 237.528 103.724 237.215 103.67C236.902 103.616 236.623 103.439 236.44 103.179C236.257 102.92 236.185 102.598 236.239 102.285C236.294 101.972 236.47 101.693 236.73 101.51L245.834 95.1928ZM70.5976 202.26C70.7371 202.188 70.8895 202.143 71.0461 202.13C71.2027 202.116 71.3604 202.134 71.5103 202.181C71.6601 202.228 71.7992 202.305 71.9195 202.406C72.0398 202.507 72.139 202.631 72.2115 202.77C72.2839 202.91 72.3282 203.062 72.3418 203.219C72.3553 203.375 72.3379 203.533 72.2905 203.683C72.2432 203.833 72.1667 203.972 72.0656 204.092C71.9644 204.213 71.8406 204.312 71.7011 204.384L61.88 209.488C61.604 209.615 61.2897 209.632 61.0018 209.534C60.714 209.437 60.4746 209.232 60.333 208.963C60.1915 208.694 60.1586 208.381 60.2411 208.089C60.3236 207.796 60.5152 207.547 60.7764 207.391L70.5976 202.26ZM253.31 107.111C253.448 107.028 253.602 106.975 253.761 106.954C253.921 106.933 254.083 106.945 254.238 106.988C254.393 107.032 254.538 107.107 254.663 107.208C254.788 107.31 254.891 107.435 254.966 107.578C255.041 107.72 255.086 107.876 255.099 108.037C255.111 108.197 255.091 108.359 255.04 108.511C254.988 108.664 254.906 108.804 254.798 108.924C254.69 109.043 254.56 109.14 254.413 109.207L244.565 114.339C244.426 114.414 244.274 114.46 244.117 114.474C243.96 114.488 243.801 114.47 243.652 114.421C243.502 114.372 243.364 114.293 243.246 114.189C243.127 114.084 243.032 113.957 242.965 113.814C242.893 113.675 242.85 113.523 242.838 113.367C242.826 113.211 242.845 113.054 242.894 112.905C242.942 112.756 243.02 112.619 243.122 112.5C243.224 112.382 243.349 112.284 243.489 112.214L253.31 107.111ZM65.7146 190.508C65.8613 190.455 66.017 190.432 66.1727 190.44C66.3283 190.447 66.481 190.485 66.6219 190.552C66.7628 190.619 66.8892 190.712 66.9939 190.828C67.0986 190.943 67.1795 191.078 67.2319 191.225C67.2891 191.37 67.3165 191.524 67.3125 191.68C67.3086 191.835 67.2734 191.988 67.2091 192.13C67.1447 192.272 67.0525 192.399 66.9379 192.504C66.8234 192.609 66.6888 192.69 66.5422 192.742L56.1142 196.549C55.9674 196.602 55.8118 196.625 55.6561 196.618C55.5004 196.61 55.3478 196.572 55.2069 196.505C55.0659 196.439 54.9395 196.345 54.8349 196.229C54.7302 196.114 54.6493 195.979 54.5968 195.832C54.5443 195.685 54.5211 195.53 54.5287 195.374C54.5362 195.218 54.5744 195.066 54.6411 194.925C54.7077 194.784 54.8014 194.657 54.9169 194.553C55.0324 194.448 55.1674 194.367 55.3141 194.315L65.7146 190.508ZM259.186 120.022C259.333 119.969 259.488 119.946 259.644 119.953C259.8 119.961 259.952 119.999 260.093 120.066C260.234 120.132 260.361 120.226 260.465 120.342C260.57 120.457 260.651 120.592 260.703 120.739C260.756 120.886 260.779 121.041 260.771 121.197C260.764 121.353 260.726 121.505 260.659 121.646C260.592 121.787 260.499 121.913 260.383 122.018C260.268 122.123 260.133 122.204 259.986 122.256L249.586 126.063C249.439 126.116 249.283 126.139 249.127 126.131C248.972 126.124 248.819 126.086 248.678 126.019C248.537 125.952 248.411 125.859 248.306 125.743C248.202 125.628 248.121 125.493 248.068 125.346C248.011 125.201 247.984 125.047 247.988 124.891C247.992 124.736 248.027 124.583 248.091 124.441C248.155 124.299 248.248 124.172 248.362 124.067C248.477 123.962 248.611 123.881 248.758 123.829L259.186 120.022ZM62.1834 178.259C62.3356 178.224 62.493 178.22 62.6468 178.247C62.8005 178.273 62.9476 178.33 63.0795 178.413C63.2114 178.496 63.3257 178.605 63.4157 178.732C63.5057 178.859 63.5698 179.003 63.6042 179.155C63.6386 179.308 63.6427 179.465 63.6163 179.619C63.5898 179.773 63.5334 179.92 63.4501 180.052C63.3669 180.183 63.2584 180.298 63.131 180.388C63.0036 180.478 62.8597 180.542 62.7076 180.576L51.8933 182.976C51.5826 183.042 51.2584 182.984 50.9902 182.814C50.722 182.644 50.5312 182.375 50.4587 182.066C50.3932 181.759 50.4523 181.438 50.623 181.174C50.7936 180.91 51.062 180.725 51.3691 180.659L62.1834 178.259ZM263.297 133.622C263.607 133.556 263.931 133.614 264.2 133.785C264.468 133.955 264.659 134.223 264.731 134.533C264.797 134.84 264.738 135.161 264.567 135.424C264.396 135.688 264.128 135.873 263.821 135.94L253.006 138.34C252.699 138.409 252.377 138.354 252.11 138.186C251.844 138.017 251.655 137.75 251.586 137.443C251.516 137.136 251.572 136.813 251.74 136.547C251.908 136.281 252.175 136.092 252.482 136.022L263.297 133.622ZM60.4178 165.596C60.5737 165.585 60.7302 165.605 60.8785 165.654C61.0267 165.703 61.1637 165.782 61.2817 165.884C61.3996 165.987 61.4961 166.112 61.5656 166.251C61.6351 166.391 61.6763 166.544 61.6868 166.7C61.7098 167.01 61.6099 167.317 61.4086 167.554C61.2074 167.792 60.9209 167.941 60.6109 167.969L49.5759 168.934C49.42 168.949 49.2626 168.934 49.1129 168.888C48.9631 168.842 48.824 168.766 48.7034 168.666C48.5829 168.566 48.4833 168.444 48.4105 168.305C48.3377 168.166 48.2931 168.014 48.2793 167.858C48.2559 167.545 48.355 167.235 48.5557 166.993C48.7563 166.751 49.0429 166.597 49.3552 166.562L60.4178 165.596ZM265.531 147.609C265.687 147.594 265.844 147.61 265.994 147.656C266.144 147.702 266.283 147.777 266.404 147.877C266.524 147.977 266.624 148.1 266.697 148.239C266.769 148.377 266.814 148.529 266.828 148.685C266.851 148.998 266.752 149.309 266.551 149.55C266.351 149.792 266.064 149.947 265.752 149.982L254.717 150.947C254.561 150.958 254.404 150.939 254.256 150.889C254.108 150.84 253.971 150.762 253.853 150.659C253.735 150.557 253.639 150.432 253.569 150.292C253.499 150.152 253.458 150 253.448 149.844C253.425 149.533 253.525 149.226 253.726 148.989C253.927 148.752 254.214 148.603 254.524 148.575L265.531 147.609ZM60.2799 152.878C60.5945 152.878 60.8962 153.003 61.1187 153.226C61.3412 153.448 61.4661 153.75 61.4661 154.065C61.4661 154.379 61.3412 154.681 61.1187 154.903C60.8962 155.126 60.5945 155.251 60.2799 155.251L49.2449 154.782C48.9302 154.782 48.6285 154.657 48.406 154.434C48.1836 154.212 48.0586 153.91 48.0586 153.596C48.0586 153.281 48.1836 152.979 48.406 152.757C48.6285 152.534 48.9302 152.409 49.2449 152.409L60.2799 152.878ZM266.083 161.817C266.397 161.817 266.699 161.942 266.922 162.164C267.144 162.387 267.269 162.688 267.269 163.003C267.269 163.318 267.144 163.619 266.922 163.842C266.699 164.064 266.397 164.189 266.083 164.189L255.048 163.72C254.733 163.72 254.432 163.595 254.209 163.373C253.987 163.15 253.862 162.849 253.862 162.534C253.862 162.219 253.987 161.918 254.209 161.695C254.432 161.473 254.733 161.348 255.048 161.348L266.083 161.817ZM59.0108 139.747C59.1651 139.773 59.3125 139.83 59.4447 139.914C59.5768 139.998 59.691 140.107 59.7808 140.235C59.8705 140.364 59.934 140.508 59.9676 140.661C60.0012 140.814 60.0042 140.972 59.9764 141.126C59.9224 141.432 59.7505 141.704 59.4977 141.885C59.245 142.065 58.9315 142.14 58.6246 142.092L50.5139 140.657C50.2058 140.597 49.9331 140.419 49.7531 140.162C49.573 139.905 49.4996 139.588 49.5483 139.278C49.575 139.123 49.6319 138.976 49.7157 138.844C49.7996 138.712 49.9088 138.597 50.037 138.508C50.1652 138.418 50.3099 138.354 50.4628 138.321C50.6157 138.287 50.7737 138.284 50.9277 138.312L59.0108 139.747ZM264.704 175.969C265.012 176.029 265.284 176.207 265.464 176.464C265.644 176.721 265.718 177.038 265.669 177.348C265.642 177.503 265.586 177.65 265.502 177.782C265.418 177.914 265.309 178.029 265.18 178.118C265.052 178.208 264.907 178.272 264.755 178.305C264.602 178.339 264.444 178.342 264.29 178.314L256.013 176.879C255.859 176.854 255.712 176.799 255.579 176.716C255.447 176.634 255.332 176.526 255.241 176.399C255.15 176.273 255.085 176.129 255.049 175.977C255.014 175.825 255.009 175.668 255.034 175.514C255.059 175.36 255.115 175.212 255.197 175.08C255.28 174.947 255.387 174.832 255.514 174.741C255.641 174.65 255.784 174.585 255.936 174.55C256.088 174.514 256.246 174.509 256.4 174.535L264.704 175.969ZM64.9973 127.884C65.2973 127.979 65.5472 128.19 65.6921 128.469C65.837 128.748 65.8649 129.074 65.7698 129.374C65.6747 129.674 65.4643 129.924 65.1849 130.068C64.9055 130.213 64.5801 130.241 64.2801 130.146L53.714 126.836C53.412 126.735 53.1617 126.519 53.0172 126.235C52.8727 125.951 52.8455 125.622 52.9416 125.318C52.9886 125.17 53.0645 125.032 53.1649 124.913C53.2652 124.794 53.3881 124.695 53.5264 124.623C53.6648 124.552 53.8159 124.508 53.9712 124.495C54.1264 124.481 54.2828 124.499 54.4313 124.546L64.9973 127.884ZM261.476 189.763C261.778 189.864 262.028 190.079 262.173 190.363C262.317 190.647 262.344 190.976 262.248 191.28C262.201 191.429 262.125 191.567 262.025 191.686C261.925 191.805 261.802 191.903 261.663 191.975C261.525 192.047 261.374 192.091 261.219 192.104C261.063 192.117 260.907 192.1 260.758 192.053L250.192 188.715C249.892 188.619 249.643 188.409 249.498 188.13C249.353 187.85 249.325 187.525 249.42 187.225C249.515 186.925 249.726 186.675 250.005 186.53C250.284 186.385 250.61 186.357 250.91 186.452L261.476 189.763ZM69.6596 116.021C69.9486 116.153 70.1735 116.394 70.2847 116.692C70.396 116.989 70.3845 117.319 70.2528 117.608C70.1211 117.897 69.88 118.121 69.5825 118.233C69.285 118.344 68.9555 118.332 68.6665 118.201L58.6246 113.511C58.3424 113.369 58.1269 113.122 58.0239 112.823C57.9208 112.524 57.9384 112.197 58.0729 111.911C58.2098 111.631 58.4516 111.416 58.7459 111.312C59.0402 111.209 59.3633 111.226 59.6454 111.359L69.6596 116.021ZM256.372 203.088C256.652 203.225 256.867 203.466 256.971 203.761C257.074 204.055 257.057 204.378 256.924 204.66C256.861 204.804 256.771 204.933 256.657 205.041C256.543 205.149 256.408 205.232 256.261 205.286C256.115 205.34 255.958 205.364 255.802 205.356C255.645 205.348 255.492 205.308 255.351 205.239L245.309 200.577C245.02 200.445 244.796 200.204 244.684 199.907C244.573 199.609 244.585 199.28 244.716 198.991C244.848 198.702 245.089 198.477 245.387 198.366C245.684 198.255 246.014 198.266 246.303 198.398L256.372 203.088ZM76.0324 104.959C76.1649 105.04 76.2796 105.148 76.3697 105.274C76.4599 105.401 76.5236 105.545 76.557 105.696C76.5905 105.848 76.5931 106.005 76.5645 106.158C76.536 106.311 76.477 106.457 76.391 106.586C76.216 106.849 75.9473 107.035 75.6398 107.107C75.3323 107.179 75.009 107.131 74.7357 106.973L65.4112 101.014C65.2789 100.93 65.1644 100.822 65.0741 100.694C64.9838 100.567 64.9196 100.423 64.885 100.27C64.8504 100.118 64.8462 99.96 64.8726 99.8059C64.8989 99.6519 64.9554 99.5045 65.0387 99.3723C65.1221 99.24 65.2306 99.1255 65.3582 99.0352C65.4858 98.945 65.6299 98.8807 65.7823 98.8461C65.9347 98.8115 66.0925 98.8073 66.2465 98.8337C66.4006 98.8601 66.5479 98.9165 66.6802 98.9998L76.0324 104.959ZM249.834 215.585C250.101 215.753 250.29 216.021 250.36 216.328C250.43 216.636 250.375 216.959 250.206 217.226C250.038 217.493 249.771 217.683 249.463 217.752C249.155 217.822 248.832 217.767 248.565 217.599L239.213 211.64C239.08 211.558 238.965 211.451 238.875 211.324C238.785 211.197 238.721 211.054 238.688 210.902C238.654 210.75 238.652 210.593 238.68 210.44C238.709 210.287 238.768 210.142 238.854 210.012C239.024 209.751 239.288 209.566 239.591 209.494C239.894 209.422 240.213 209.469 240.482 209.626L249.834 215.585ZM83.7569 94.7514C83.9824 94.9572 84.1199 95.2421 84.1407 95.5468C84.1615 95.8514 84.064 96.1524 83.8685 96.387C83.673 96.6216 83.3946 96.7717 83.0912 96.8062C82.7877 96.8407 82.4827 96.7569 82.2396 96.5721L73.7426 89.4546C73.4975 89.2533 73.3423 88.963 73.3113 88.6474C73.2803 88.3318 73.3759 88.0168 73.5771 87.7717C73.7783 87.5266 74.0686 87.3715 74.3842 87.3404C74.6998 87.3094 75.0148 87.405 75.2599 87.6062L83.7569 94.7514ZM241.558 227.172C241.679 227.271 241.779 227.394 241.853 227.532C241.927 227.671 241.973 227.822 241.989 227.979C242.004 228.135 241.989 228.293 241.943 228.443C241.897 228.593 241.823 228.733 241.723 228.854C241.623 228.976 241.501 229.076 241.362 229.15C241.224 229.224 241.072 229.27 240.916 229.286C240.76 229.301 240.602 229.285 240.452 229.24C240.301 229.194 240.162 229.12 240.04 229.02L231.543 221.875C231.318 221.669 231.18 221.384 231.159 221.079C231.139 220.775 231.236 220.474 231.432 220.239C231.627 220.005 231.906 219.854 232.209 219.82C232.512 219.785 232.817 219.869 233.061 220.054L241.558 227.172ZM92.5849 85.6751C92.6958 85.7853 92.7839 85.9164 92.8439 86.0608C92.904 86.2052 92.9349 86.3601 92.9349 86.5165C92.9349 86.6729 92.904 86.8277 92.8439 86.9722C92.7839 87.1166 92.6958 87.2477 92.5849 87.3579C92.3588 87.5754 92.0572 87.6969 91.7435 87.6969C91.4297 87.6969 91.1282 87.5754 90.902 87.3579L83.4258 79.0816C83.21 78.8512 83.0945 78.5444 83.1049 78.2288C83.1152 77.9132 83.2505 77.6146 83.481 77.3988C83.7115 77.183 84.0182 77.0675 84.3338 77.0779C84.6494 77.0882 84.948 77.2235 85.1638 77.454L92.5849 85.6751ZM231.792 237.407C231.903 237.517 231.991 237.648 232.051 237.792C232.111 237.937 232.142 238.092 232.142 238.248C232.142 238.404 232.111 238.559 232.051 238.704C231.991 238.848 231.903 238.979 231.792 239.089C231.565 239.307 231.264 239.428 230.95 239.428C230.636 239.428 230.335 239.307 230.109 239.089L222.633 230.813C222.522 230.703 222.434 230.572 222.373 230.427C222.313 230.283 222.282 230.128 222.282 229.972C222.282 229.815 222.313 229.66 222.373 229.516C222.434 229.372 222.522 229.241 222.633 229.13C222.859 228.913 223.16 228.791 223.474 228.791C223.788 228.791 224.089 228.913 224.315 229.13L231.792 237.407ZM94.4884 70.0605C94.3153 69.7989 94.2502 69.4804 94.3068 69.1718C94.3633 68.8632 94.5372 68.5885 94.7919 68.4053C94.9203 68.316 95.0652 68.2531 95.218 68.22C95.3709 68.187 95.5288 68.1845 95.6826 68.2127C95.8365 68.2409 95.9832 68.2992 96.1144 68.3844C96.2456 68.4695 96.3587 68.5797 96.4471 68.7087L102.765 77.785C102.854 77.9135 102.917 78.0583 102.95 78.2112C102.983 78.364 102.985 78.5219 102.957 78.6758C102.929 78.8296 102.871 78.9764 102.786 79.1076C102.7 79.2388 102.59 79.3518 102.461 79.4403C102.334 79.5333 102.189 79.5993 102.036 79.6345C101.882 79.6696 101.723 79.6731 101.568 79.6447C101.413 79.6163 101.266 79.5566 101.135 79.4693C101.004 79.382 100.892 79.2688 100.806 79.1368L94.4884 70.0605Z" fill="#004996"/>
<path d="M137.304 274.952L134.545 274.483L132.034 280.194L131.648 273.987L128.889 273.49L125.055 282.456L127.538 282.898L129.855 277.242L130.186 283.367L132.559 283.78L134.848 278.263L135.014 284.305L137.773 284.774L137.304 274.952ZM143.621 275.918C143.18 275.767 142.711 275.712 142.247 275.755C141.782 275.798 141.332 275.938 140.925 276.168C140.519 276.397 140.166 276.709 139.889 277.085C139.611 277.46 139.417 277.89 139.317 278.346C138.959 280.387 140.062 281.104 142.38 281.904C143.511 282.263 143.759 282.539 143.676 283.063C143.594 283.587 143.18 283.808 142.462 283.67C142.311 283.667 142.162 283.633 142.025 283.569C141.888 283.504 141.766 283.412 141.667 283.298C141.568 283.183 141.494 283.049 141.451 282.904C141.407 282.759 141.395 282.606 141.414 282.456L138.931 282.015C138.766 284.029 139.869 285.187 142.104 285.601C144.338 286.015 145.966 284.994 146.269 283.311C146.573 281.629 145.828 280.553 143.235 279.697C142.159 279.339 141.828 279.118 141.911 278.539C141.993 277.959 142.518 277.684 143.29 277.821C144.063 277.959 144.614 278.622 144.559 279.311L147.125 279.753C147.401 277.711 146.242 276.359 143.621 275.918" fill="#004996"/>
</g>
<path d="M177.45 188.211C182.771 184.482 186.868 179.258 189.22 173.201C191.573 167.144 192.077 160.525 190.668 154.181C189.26 147.837 186.002 142.054 181.306 137.562C176.61 133.07 170.688 130.071 164.289 128.945C157.889 127.818 151.299 128.615 145.352 131.234C139.405 133.852 134.368 138.176 130.877 143.657C127.387 149.139 125.601 155.532 125.744 162.028C125.888 168.525 127.954 174.833 131.682 180.155C136.692 187.282 144.322 192.131 152.901 193.641C161.48 195.151 170.308 193.198 177.45 188.211" fill="#E84910"/>
<path d="M174.113 183.465C178.499 180.396 181.876 176.095 183.818 171.107C185.759 166.118 186.177 160.666 185.02 155.439C183.862 150.213 181.18 145.447 177.314 141.745C173.448 138.043 168.57 135.57 163.299 134.64C158.027 133.71 152.598 134.364 147.698 136.52C142.798 138.676 138.648 142.236 135.772 146.751C132.895 151.265 131.423 156.531 131.54 161.883C131.657 167.235 133.358 172.432 136.429 176.817C140.55 182.688 146.832 186.686 153.896 187.932C160.961 189.179 168.232 187.572 174.113 183.465" fill="#004996"/>
<path d="M172.459 157.588L168.596 152.071C167.995 151.118 167.205 150.299 166.276 149.662C165.347 149.025 164.297 148.585 163.192 148.368C162.087 148.151 160.948 148.162 159.847 148.4C158.746 148.638 157.706 149.099 156.789 149.754L156.099 150.25C155.176 150.906 154.405 151.753 153.839 152.734C153.272 153.715 152.924 154.806 152.816 155.933C151.716 155.652 150.567 155.609 149.449 155.809C148.331 156.009 147.268 156.446 146.333 157.092L145.643 157.561C143.8 158.994 142.6 161.099 142.305 163.416C142.01 165.732 142.645 168.071 144.071 169.92L149.975 178.389L153.533 175.907L148.568 168.789C147.326 167.023 144.843 163.492 148.375 161.009C151.906 158.526 154.416 162.058 155.658 163.768L160.623 170.886L164.182 168.375L159.217 161.285C158.168 159.823 155.465 156.126 158.941 153.368C162.417 150.609 165.175 154.747 166.224 156.126L168.983 159.878L172.459 157.588Z" fill="white"/>
<path d="M174.527 160.623C174.94 161.018 175.18 161.561 175.193 162.133C175.205 162.704 174.991 163.258 174.596 163.671C174.4 163.876 174.166 164.04 173.907 164.154C173.648 164.269 173.369 164.331 173.086 164.337C172.514 164.35 171.961 164.135 171.547 163.74C171.134 163.345 170.894 162.802 170.881 162.23C170.868 161.659 171.083 161.105 171.478 160.692C171.873 160.278 172.417 160.039 172.988 160.026C173.56 160.013 174.113 160.228 174.527 160.623Z" fill="#E84910"/>
</g>
<defs>
<filter id="filter0_d" x="0" y="0" width="316.385" height="316.385" filterUnits="userSpaceOnUse" color-interpolation-filters="sRGB">
<feFlood flood-opacity="0" result="BackgroundImageFix"/>
<feColorMatrix in="SourceAlpha" type="matrix" values="0 0 0 0 0 0 0 0 0 0 0 0 0 0 0 0 0 0 127 0" result="hardAlpha"/>
<feOffset/>
<feGaussianBlur stdDeviation="10"/>
<feComposite in2="hardAlpha" operator="out"/>
<feColorMatrix type="matrix" values="0 0 0 0 0 0 0 0 0 0 0 0 0 0 0 0 0 0 0.27 0"/>
<feBlend mode="normal" in2="BackgroundImageFix" result="effect1_dropShadow"/>
<feBlend mode="normal" in="SourceGraphic" in2="effect1_dropShadow" result="shape"/>
</filter>
</defs>
</svg>
