<svg xmlns="http://www.w3.org/2000/svg" fill="none" viewBox="0 0 353 353">
  <g filter="url(#filter0_d)">
    <circle cx="176.673" cy="157.193" r="138.193" fill="#fff"/>
    <mask id="a" width="245" height="245" x="53.645" y="34.867" fill="#000" maskUnits="userSpaceOnUse">
      <path fill="#fff" d="M53.645 34.867h245v245h-245z"/>
      <path fill-rule="evenodd" d="M153.097 155.261l2.132 4.098h.14a1.229 1.229 0 001.178.645l15.236-1.175-95.541 66.9 76.855-70.468zm-1.154-2.221L61.129 236.3c-.074.059-.14.125-.198.198a1.215 1.215 0 00.689 1.973c.282.056.574.011.824-.127.049-.024.097-.051.143-.082l.005-.003 109.227-56.826 83.258 90.813c.061.077.131.146.208.205a1.213 1.213 0 001.834-1.525 1.581 1.581 0 00-.079-.138l-.002-.003-56.827-109.229 90.738-83.19.018-.012a1.21 1.21 0 00.336-1.682 1.212 1.212 0 00-1.014-.54 1.236 1.236 0 00-.724.204l-.158.11-109.073 56.719L97.147 42.43l-.016-.023a1.213 1.213 0 00-2.222.678c-.01.255.06.51.204.725l.113.162 56.717 109.068zm47.113 6.296l76.742-70.364-95.426 66.796 15.234-1.175a1.235 1.235 0 011.178.645h.14l2.132 4.098zm-21.45 2.256l1.176 15.237a1.236 1.236 0 01-.645 1.177v.141l-4.098 2.132 70.467 76.854-.087-.124-66.813-95.417zm-8.239-15.988L107.752 57.58l70.362 76.74-4.099 2.132v.14a1.235 1.235 0 00-.645 1.177l1.15 15.195-5.153-7.36z" clip-rule="evenodd"/>
    </mask>
    <path fill="#fff" fill-rule="evenodd" d="M153.097 155.261l2.132 4.098h.14a1.229 1.229 0 001.178.645l15.236-1.175-95.541 66.9 76.855-70.468zm-1.154-2.221L61.129 236.3c-.074.059-.14.125-.198.198a1.215 1.215 0 00.689 1.973c.282.056.574.011.824-.127.049-.024.097-.051.143-.082l.005-.003 109.227-56.826 83.258 90.813c.061.077.131.146.208.205a1.213 1.213 0 001.834-1.525 1.581 1.581 0 00-.079-.138l-.002-.003-56.827-109.229 90.738-83.19.018-.012a1.21 1.21 0 00.336-1.682 1.212 1.212 0 00-1.014-.54 1.236 1.236 0 00-.724.204l-.158.11-109.073 56.719L97.147 42.43l-.016-.023a1.213 1.213 0 00-2.222.678c-.01.255.06.51.204.725l.113.162 56.717 109.068zm47.113 6.296l76.742-70.364-95.426 66.796 15.234-1.175a1.235 1.235 0 011.178.645h.14l2.132 4.098zm-21.45 2.256l1.176 15.237a1.236 1.236 0 01-.645 1.177v.141l-4.098 2.132 70.467 76.854-.087-.124-66.813-95.417zm-8.239-15.988L107.752 57.58l70.362 76.74-4.099 2.132v.14a1.235 1.235 0 00-.645 1.177l1.15 15.195-5.153-7.36z" clip-rule="evenodd"/>
    <path fill="#fff" d="M155.229 159.359l-6.211 3.23 1.961 3.77h4.25v-7zm-2.132-4.098l6.211-3.23-4.212-8.1-6.729 6.17 4.73 5.16zm2.272 4.098l6.162-3.321-1.983-3.679h-4.179v7zm.493.497l-3.362 6.14 3.362-6.14zm.685.148l.52 6.981.009-.001.009-.001-.538-6.979zm15.236-1.175l4.015 5.734 20.968-14.682-25.521 1.969.538 6.979zm-95.541 66.9l-4.73-5.16 8.745 10.894-4.015-5.734zM61.129 236.3l4.37 5.469.185-.149.175-.161-4.73-5.159zm90.814-83.26l4.73 5.16 3.957-3.627-2.477-4.762-6.21 3.229zm-91.012 83.458l5.346 4.52.073-.087.071-.09-5.49-4.343zm-.263.545l-6.864-1.372 6.864 1.372zm.18.911l5.825-3.883-5.825 3.883zm.772.517l-1.373 6.864 1.373-6.864zm.824-.127l-3.05-6.301-.169.082-.163.089 3.382 6.13zm.143-.082l3.843 5.851.085-.056.083-.058-4.011-5.737zm.005-.003l-3.231-6.21-.406.211-.374.262 4.01 5.737zm109.227-56.826l5.159-4.73-3.628-3.957-4.762 2.478 3.231 6.209zm83.258 90.813l5.468-4.37-.148-.185-.16-.175-5.16 4.73zm.208.205l4.464-5.392-.086-.071-.089-.069-4.289 5.532zm.536.255l-1.373 6.864 1.373-6.864zm.911-.18l3.882 5.824h.001l-3.883-5.824zm.516-.771l6.864 1.373v-.001l-6.864-1.372zm-.129-.829l-6.288 3.077.082.167.09.162 6.116-3.406zm-.079-.138l5.85-3.843-.058-.089-.06-.086-5.732 4.018zm-.002-.003l-6.21 3.231.213.409.265.378 5.732-4.018zm-56.827-109.229l-4.73-5.159-3.958 3.628 2.478 4.762 6.21-3.231zm90.738-83.19l-4.015-5.734-.377.264-.339.311 4.731 5.16zm.018-.012l-3.883-5.824-.066.044-.065.046 4.014 5.734zm.516-.771l-6.864-1.373 6.864 1.373zm-.18-.911l-5.824 3.883 5.824-3.883zm-.771-.517l-1.373 6.864 1.373-6.864zm-.243-.023l-.243 6.995.136.005h.136l-.029-7zm-.724.204l-3.863-5.838-.077.051-.076.053 4.016 5.734zm-.158.11l3.229 6.211.409-.212.377-.265-4.015-5.733zm-109.073 56.719l-5.159 4.731 3.627 3.956 4.762-2.476-3.23-6.211zM97.147 42.43l-5.735 4.014.264.377.311.34 5.16-4.73zm-.016-.023l-5.824 3.883.044.066.046.066 5.734-4.015zm-.771-.516l-1.373 6.864 1.373-6.864zm-.911.18l-3.883-5.824 3.883 5.824zm-.517.771l-6.864-1.372 6.864 1.372zm-.023.242l6.995.254.005-.139v-.139l-7 .024zm.204.726l-5.838 3.863.051.077.053.076 5.734-4.016zm.113.162l6.211-3.23-.213-.409-.264-.377-5.734 4.016zm103.83 115.364l-6.21 3.231 4.213 8.098 6.728-6.169-4.731-5.16zm76.742-70.364l4.731 5.16-8.745-10.895 4.014 5.735zm-95.426 66.796l-4.014-5.735-20.977 14.684 25.529-1.97-.538-6.979zm15.234-1.175l-.52-6.981-.009.001-.01.001.539 6.979zm1.178.645l-6.162 3.321 1.983 3.679h4.179v-7zm.14 0l6.21-3.231-1.961-3.769h-4.249v7zm-19.318 6.354l5.734-4.016-14.682-20.967 1.969 25.521 6.979-.538zm1.176 15.237l6.98-.521v-.009l-.001-.009-6.979.539zm-.645 1.177l-3.322-6.161-3.678 1.983v4.178h7zm0 .141l3.23 6.209 3.77-1.961v-4.248h-7zm-4.098 2.132l-3.231-6.21-8.098 4.212 6.169 6.728 5.16-4.73zm70.467 76.854l-5.159 4.731 10.897-8.741-5.738 4.01zm-.087-.124l5.738-4.01-.004-.005-5.734 4.015zM107.752 57.58l5.159-4.73-10.894 8.744 5.735-4.014zm61.615 88.024l-5.735 4.014.001.002 5.734-4.016zm8.747-11.284l3.23 6.21 8.099-4.212-6.169-6.729-5.16 4.731zm-4.099 2.132l-3.23-6.211-3.77 1.961v4.25h7zm0 .14l3.322 6.162 3.678-1.983v-4.179h-7zm-.497.493l6.14 3.362-6.14-3.362zm-.148.684l-6.981.52.001.009 6.98-.529zm1.15 15.195l-5.733 4.016 14.641 20.908-1.927-25.452-6.981.528zm-13.081 3.166l-2.131-4.099-12.421 6.459 2.131 4.099 12.421-6.459zm-6.07-3.771h-.14v14h.14v-14zm3.855 1.357a5.774 5.774 0 012.307 2.322l-12.324 6.643a8.241 8.241 0 003.293 3.315l6.724-12.28zm-3.198-.692a5.762 5.762 0 013.198.692l-6.724 12.28a8.235 8.235 0 004.567.989l-1.041-13.961zm15.219-1.174l-15.237 1.175 1.077 13.958 15.236-1.175-1.076-13.958zm-90.988 79.613l95.541-66.9-8.03-11.468-95.541 66.9 8.03 11.468zm68.11-81.362l-76.856 70.468 9.462 10.319 76.855-70.468-9.461-10.319zm-82.508 91.358l90.814-83.259-9.461-10.319-90.814 83.259 9.461 10.319zm.562-.618c-.27.341-.58.653-.923.928l-8.739-10.938a8.214 8.214 0 00-1.318 1.324l10.98 8.686zm1.111-2.425a5.797 5.797 0 01-1.255 2.602l-10.691-9.039a8.211 8.211 0 00-1.782 3.692l13.728 2.745zm-.86-4.345a5.787 5.787 0 01.86 4.345l-13.728-2.745a8.211 8.211 0 001.22 6.166l11.648-7.766zm-3.68-2.464a5.786 5.786 0 013.68 2.464l-11.648 7.766a8.21 8.21 0 005.223 3.498l2.746-13.728zm-3.93.607a5.792 5.792 0 013.93-.607l-2.745 13.728a8.211 8.211 0 005.578-.862l-6.763-12.259zm-.319.198a5.68 5.68 0 01.65-.369l6.101 12.601c.322-.156.635-.333.936-.531l-7.687-11.701zm-.162.11l-.005.004 8.022 11.473.004-.003-8.021-11.474zm110.007-57.298L59.361 232.049l6.461 12.42 109.227-56.826-6.461-12.419zm91.649 92.292l-83.259-90.813-10.319 9.461 83.258 90.813 10.32-9.461zm-.663-.597c.359.278.685.599.971.957l-10.936 8.74c.409.512.875.97 1.387 1.367l8.578-11.064zm-2.38-1.077a5.791 5.791 0 012.555 1.217l-8.928 10.784a8.206 8.206 0 003.627 1.727l2.746-13.728zm-4.345.86a5.782 5.782 0 014.344-.86l-2.745 13.728a8.21 8.21 0 006.166-1.22l-7.765-11.648zm-2.465 3.68a5.789 5.789 0 012.464-3.68l7.767 11.648a8.212 8.212 0 003.497-5.222l-13.728-2.746zm.619 3.95a5.789 5.789 0 01-.619-3.95l13.728 2.745a8.212 8.212 0 00-.878-5.607l-12.231 6.812zm.186.3a5.823 5.823 0 01-.358-.629l12.575-6.153a8.088 8.088 0 00-.516-.905l-11.701 7.687zm.117.171l.002.003 11.464-8.036-.003-.003-11.463 8.036zm-57.305-110.016l56.827 109.229 12.419-6.462-56.826-109.228-12.42 6.461zm92.217-91.58l-90.737 83.19 9.46 10.319 90.738-83.19-9.461-10.319zm.735-.587l-.019.012 8.029 11.47.018-.013-8.028-11.47zm-2.334 3.59a5.788 5.788 0 012.465-3.68l7.766 11.649a8.219 8.219 0 003.498-5.224l-13.729-2.745zm.86 4.345a5.789 5.789 0 01-.86-4.345l13.729 2.745a8.216 8.216 0 00-1.22-6.166l-11.649 7.766zm3.68 2.464a5.785 5.785 0 01-3.68-2.464l11.649-7.766a8.217 8.217 0 00-5.223-3.498l-2.746 13.728zm1.159.112a5.785 5.785 0 01-1.159-.112l2.746-13.728a8.218 8.218 0 00-1.645-.16l.058 14zm3.11-.958a5.767 5.767 0 01-3.382.954l.486-13.991a8.237 8.237 0 00-4.83 1.362l7.726 11.675zm-.006.007l.159-.11-8.032-11.468-.158.111 8.031 11.467zm-109.858 57.196l109.072-56.719-6.459-12.42-109.072 56.718 6.459 12.421zM91.988 47.161l83.187 90.735 10.319-9.461L102.307 37.7l-10.32 9.46zm-.591-.74l.015.023 11.47-8.028-.016-.023-11.47 8.029zm3.59 2.334a5.786 5.786 0 01-3.68-2.465l11.649-7.765a8.216 8.216 0 00-5.224-3.498l-2.745 13.728zm4.345-.86a5.787 5.787 0 01-4.345.86l2.746-13.728a8.213 8.213 0 00-6.167 1.22l7.766 11.648zm2.464-3.68a5.787 5.787 0 01-2.464 3.68l-7.766-11.648a8.213 8.213 0 00-3.498 5.223l13.728 2.745zm.113-1.155c.001.386-.036.773-.113 1.155L88.068 41.47a8.214 8.214 0 00-.16 1.639l14.001-.049zm-.959-3.113a5.767 5.767 0 01.954 3.391l-13.99-.507a8.233 8.233 0 001.361 4.842l11.675-7.726zm.01.009l-.114-.162-11.467 8.032.113.161 11.468-8.031zm57.193 109.855L101.437 40.742l-12.421 6.46 56.716 109.068 12.421-6.459zm45.634 14.685l76.742-70.365-9.461-10.319-76.743 70.365 9.462 10.319zm67.997-81.259l-95.426 66.796 8.028 11.47 95.427-66.797-8.029-11.469zm-90.874 79.51l15.234-1.175-1.077-13.958-15.234 1.175 1.077 13.958zm15.216-1.174a5.764 5.764 0 01-3.198-.692l6.724-12.28a8.233 8.233 0 00-4.566-.989l1.04 13.961zm-3.198-.692a5.76 5.76 0 01-2.306-2.322l12.323-6.643a8.229 8.229 0 00-3.293-3.315l-6.724 12.28zm3.856 1.357h.14v-14h-.14v14zm-6.07-3.77l2.132 4.099 12.42-6.461-2.132-4.099-12.42 6.461zm-20.087 3.662l1.175 15.237 13.959-1.077-1.176-15.237-13.958 1.077zm1.174 15.219a5.765 5.765 0 01.693-3.198l12.279 6.724a8.235 8.235 0 00.989-4.567l-13.961 1.041zm.693-3.198a5.763 5.763 0 012.321-2.306l6.643 12.323a8.229 8.229 0 003.315-3.293l-12.279-6.724zm-1.357 3.855v.141h14v-.141h-14zm3.769-6.069l-4.098 2.132 6.461 12.419 4.098-2.132-6.461-12.419zm-6.027 13.072l70.468 76.855 10.319-9.462-70.468-76.854-10.319 9.461zm81.365 68.114l-.087-.124-11.475 8.02.086.124 11.476-8.02zm-.091-.129l-66.813-95.418-11.468 8.031 66.813 95.417 11.468-8.03zm-148.136-191.4l61.615 88.024 11.469-8.028-61.614-88.024-11.47 8.028zm81.257 67.995l-70.363-76.74-10.319 9.462 70.363 76.74 10.319-9.462zm-6.03 13.073l4.1-2.132-6.459-12.421-4.1 2.132 6.459 12.421zm3.771-6.07v-.14h-14v.14h14zm-1.357 3.855a5.772 5.772 0 01-2.321 2.307l-6.644-12.324a8.233 8.233 0 00-3.314 3.293l12.279 6.724zm.693-3.198a5.771 5.771 0 01-.693 3.198l-12.279-6.724a8.234 8.234 0 00-.99 4.566l13.962-1.04zm1.15 15.187l-1.151-15.195-13.96 1.057 1.15 15.195 13.961-1.057zm-17.868-2.816l5.154 7.36 11.467-8.031-5.154-7.36-11.467 8.031z" mask="url(#a)"/>
  </g>
  <mask id="b" width="245" height="245" x="53.645" y="34.867" fill="#000" maskUnits="userSpaceOnUse">
    <path fill="#fff" d="M53.645 34.867h245v245h-245z"/>
    <path fill-rule="evenodd" d="M153.097 155.261l2.132 4.098h.14a1.229 1.229 0 001.178.645l15.236-1.175-95.541 66.9 76.855-70.468zm-1.154-2.221L61.129 236.3c-.074.059-.14.125-.198.198a1.212 1.212 0 001.513 1.845c.05-.023.097-.05.143-.081l.004-.003 109.228-56.826 83.258 90.813c.061.077.131.146.208.205a1.212 1.212 0 001.834-1.524 1.374 1.374 0 00-.079-.139l-.003-.003-56.826-109.229 90.738-83.19.018-.012a1.21 1.21 0 00.336-1.682 1.212 1.212 0 00-1.015-.54 1.235 1.235 0 00-.723.204l-.158.11-109.073 56.719L97.147 42.43l-.016-.023a1.213 1.213 0 00-2.222.677c-.01.256.06.51.204.726l.113.161 56.717 109.069zm47.113 6.296l76.743-70.365-95.427 66.797 15.234-1.175a1.235 1.235 0 011.178.645h.14l2.132 4.098zm-21.45 2.256l1.176 15.237a1.236 1.236 0 01-.645 1.177v.14l-4.098 2.132 70.467 76.855-.048-.068-66.852-95.473zm-8.43-16.261L107.752 57.58l70.362 76.74-4.099 2.131v.141a1.235 1.235 0 00-.645 1.177l1.151 15.195-5.345-7.633z" clip-rule="evenodd"/>
  </mask>
  <path fill="#fff" fill-rule="evenodd" d="M153.097 155.261l2.132 4.098h.14a1.229 1.229 0 001.178.645l15.236-1.175-95.541 66.9 76.855-70.468zm-1.154-2.221L61.129 236.3c-.074.059-.14.125-.198.198a1.212 1.212 0 001.513 1.845c.05-.023.097-.05.143-.081l.004-.003 109.228-56.826 83.258 90.813c.061.077.131.146.208.205a1.212 1.212 0 001.834-1.524 1.374 1.374 0 00-.079-.139l-.003-.003-56.826-109.229 90.738-83.19.018-.012a1.21 1.21 0 00.336-1.682 1.212 1.212 0 00-1.015-.54 1.235 1.235 0 00-.723.204l-.158.11-109.073 56.719L97.147 42.43l-.016-.023a1.213 1.213 0 00-2.222.677c-.01.256.06.51.204.726l.113.161 56.717 109.069zm47.113 6.296l76.743-70.365-95.427 66.797 15.234-1.175a1.235 1.235 0 011.178.645h.14l2.132 4.098zm-21.45 2.256l1.176 15.237a1.236 1.236 0 01-.645 1.177v.14l-4.098 2.132 70.467 76.855-.048-.068-66.852-95.473zm-8.43-16.261L107.752 57.58l70.362 76.74-4.099 2.131v.141a1.235 1.235 0 00-.645 1.177l1.151 15.195-5.345-7.633z" clip-rule="evenodd"/>
  <path fill="#fff" d="M155.229 159.359l-6.211 3.23 1.961 3.77h4.25v-7zm-2.132-4.098l6.211-3.23-4.212-8.1-6.729 6.17 4.73 5.16zm2.272 4.098l6.162-3.321-1.983-3.679h-4.179v7zm.493.497l-3.362 6.14 3.362-6.14zm.685.148l.52 6.981.009-.001.009-.001-.538-6.979zm15.236-1.175l4.015 5.734 20.967-14.682-25.521 1.969.539 6.979zm-95.541 66.9l-4.73-5.16 8.745 10.894-4.015-5.734zM61.129 236.3l4.369 5.469.186-.149.175-.161-4.73-5.159zm90.814-83.26l4.73 5.16 3.956-3.627-2.476-4.762-6.21 3.229zm-91.012 83.458l5.348 4.517.073-.087.07-.089-5.491-4.341zm-.263.545l-6.864-1.372 6.864 1.372zm.18.911l5.825-3.883-5.825 3.883zm.772.517l-1.373 6.864 1.373-6.864zm.824-.128l-3.052-6.299-.168.081-.164.091 3.384 6.127zm.143-.081l3.843 5.851.088-.058.087-.06-4.018-5.733zm.004-.003l-3.23-6.21-.41.213-.377.265 4.017 5.732zm109.228-56.826l5.159-4.73-3.628-3.957-4.762 2.478 3.231 6.209zm83.258 90.813l5.469-4.369-.148-.186-.161-.175-5.16 4.73zm.208.205l4.464-5.392-.087-.072-.089-.069-4.288 5.533zm.536.255l-1.373 6.864 1.373-6.864zm.911-.18l3.882 5.825.001-.001-3.883-5.824zm.516-.771l-6.864-1.374v.001l6.864 1.373zm-.129-.828l-6.29 3.072.081.167.091.162 6.118-3.401zm-.079-.139l5.849-3.845-.057-.087-.06-.086-5.732 4.018zm-.003-.003l-6.21 3.23.213.41.265.377 5.732-4.017zm-56.826-109.229l-4.731-5.159-3.957 3.627 2.478 4.763 6.21-3.231zm90.738-83.19l-4.015-5.734-.377.264-.339.31 4.731 5.16zm.018-.012l-3.883-5.824-.066.044-.066.046 4.015 5.734zm.516-.772l-6.864-1.372 6.864 1.373zm-.18-.91l-5.824 3.882 5.824-3.882zm-.771-.517l1.373-6.864-1.373 6.864zm-.244-.024l-.237 6.996.136.005h.136l-.035-7zm-.723.205l-3.863-5.838-.077.051-.075.053 4.015 5.734zm-.158.11l3.229 6.211.409-.213.378-.264-4.016-5.734zm-109.073 56.719l-5.159 4.731 3.627 3.956 4.762-2.476-3.23-6.211zM97.147 42.43l-5.735 4.014.264.377.311.34 5.16-4.731zm-.016-.023l-5.824 3.883.044.066.046.065 5.734-4.014zm-.771-.516l-1.373 6.864 1.373-6.864zm-.911.18l-3.883-5.824 3.883 5.824zm-.517.771l6.864 1.373-6.864-1.373zm-.023.242l6.995.254.005-.138v-.139l-7 .023zm.204.726l-5.838 3.863.051.077.053.076 5.734-4.016zm.113.161l6.21-3.23-.212-.408-.265-.377-5.733 4.015zm103.83 115.365l-6.21 3.231 4.213 8.097 6.728-6.168-4.731-5.16zm76.743-70.365l4.73 5.16-8.744-10.894 4.014 5.734zm-95.427 66.797l-4.015-5.735-20.977 14.684 25.53-1.97-.538-6.979zm15.234-1.175l-.52-6.981-.009.001-.01.001.539 6.979zm1.178.645l-6.162 3.321 1.983 3.679h4.179v-7zm.14 0l6.21-3.231-1.961-3.769h-4.249v7zm-19.318 6.354l5.734-4.015-14.682-20.968 1.969 25.521 6.979-.538zm1.176 15.237l6.98-.521v-.009l-.001-.009-6.979.539zm-.645 1.177l-3.322-6.161-3.678 1.983v4.178h7zm0 .14l3.23 6.21 3.77-1.961v-4.249h-7zm-4.098 2.132l-3.231-6.209-8.098 4.212 6.169 6.728 5.16-4.731zm70.467 76.855l-5.159 4.731 10.897-8.741-5.738 4.01zm-.048-.068l5.738-4.01-.003-.005-5.735 4.015zM107.752 57.58l5.159-4.73-10.894 8.744 5.735-4.014zm61.424 87.751l-5.735 4.015.001.001 5.734-4.016zm8.938-11.011l3.23 6.21 8.099-4.212-6.169-6.729-5.16 4.731zm-4.099 2.131l-3.23-6.21-3.77 1.961v4.249h7zm0 .141l3.322 6.161 3.678-1.983v-4.178h-7zm-.497.493l6.14 3.362-6.14-3.362zm-.148.684l-6.981.52.001.009 6.98-.529zm1.151 15.195l-5.734 4.016 14.641 20.907-1.927-25.451-6.98.528zm-13.082 3.166l-2.131-4.099-12.421 6.459 2.131 4.099 12.421-6.459zm-6.07-3.771h-.14v14h.14v-14zm3.856 1.357a5.772 5.772 0 012.306 2.322l-12.324 6.643a8.235 8.235 0 003.293 3.315l6.725-12.28zm-3.198-.692a5.76 5.76 0 013.197.692l-6.724 12.28a8.235 8.235 0 004.567.989l-1.04-13.961zm15.217-1.174l-15.236 1.175 1.077 13.958 15.236-1.175-1.077-13.958zm-90.987 79.613l95.541-66.9-8.03-11.468-95.541 66.9 8.03 11.468zm68.11-81.362l-76.856 70.468 9.462 10.319 76.855-70.468-9.461-10.319zm-82.508 91.358l90.814-83.259-9.461-10.319-90.814 83.259 9.461 10.319zm.564-.62c-.27.342-.58.654-.925.93L56.76 230.83c-.493.394-.935.84-1.32 1.328l10.983 8.681zm1.11-2.423a5.785 5.785 0 01-1.254 2.599l-10.696-9.033a8.208 8.208 0 00-1.779 3.689l13.728 2.745zm-.86-4.345a5.786 5.786 0 01.86 4.345l-13.729-2.745a8.212 8.212 0 001.22 6.166l11.648-7.766zm-3.68-2.464a5.786 5.786 0 013.68 2.464l-11.65 7.766a8.21 8.21 0 005.224 3.498l2.746-13.728zm-3.933.609a5.788 5.788 0 013.932-.609l-2.745 13.728a8.215 8.215 0 005.581-.864l-6.768-12.255zm-.317.196c.209-.137.425-.26.65-.368l6.103 12.599a8.3 8.3 0 00.934-.53l-7.687-11.701zm-.17.115l-.004.003 8.035 11.465.005-.004-8.035-11.464zm110.015-57.303L59.361 232.049l6.461 12.42 109.227-56.826-6.461-12.419zm91.649 92.292l-83.259-90.813-10.319 9.461 83.258 90.813 10.32-9.461zm-.664-.598c.359.278.686.6.973.959l-10.938 8.738c.41.513.877.972 1.389 1.369l8.576-11.066zm-2.379-1.076c.948.19 1.824.612 2.555 1.217l-8.928 10.784a8.212 8.212 0 003.627 1.727l2.746-13.728zm-4.345.86a5.782 5.782 0 014.344-.86l-2.745 13.728a8.213 8.213 0 006.166-1.219l-7.765-11.649zm-2.465 3.68a5.787 5.787 0 012.465-3.68l7.766 11.648a8.212 8.212 0 003.497-5.223l-13.728-2.745zm.617 3.946a5.79 5.79 0 01-.617-3.947l13.728 2.747a8.21 8.21 0 00-.875-5.601l-12.236 6.801zm.189.305a5.796 5.796 0 01-.361-.634l12.58-6.143a8.294 8.294 0 00-.52-.913l-11.699 7.69zm.115.169l.002.004 11.465-8.036-.002-.003-11.465 8.035zm-57.304-110.015l56.826 109.228 12.42-6.461-56.826-109.228-12.42 6.461zm92.217-91.58l-90.738 83.19 9.461 10.319 90.738-83.19-9.461-10.32zm.734-.587l-.018.012 8.029 11.469.018-.013-8.029-11.468zm-2.333 3.59a5.788 5.788 0 012.465-3.68l7.766 11.648a8.218 8.218 0 003.498-5.223l-13.729-2.745zm.86 4.345a5.789 5.789 0 01-.86-4.345l13.729 2.745a8.216 8.216 0 00-1.22-6.166l-11.649 7.766zm3.68 2.464a5.785 5.785 0 01-3.68-2.465l11.649-7.765a8.217 8.217 0 00-5.223-3.498l-2.746 13.728zm1.164.112a5.797 5.797 0 01-1.164-.112l2.746-13.728a8.228 8.228 0 00-1.652-.16l.07 14zm3.105-.958a5.766 5.766 0 01-3.377.954l.474-13.992a8.236 8.236 0 00-4.823 1.363l7.726 11.675zm-.005.007l.158-.11-8.031-11.468-.159.11 8.032 11.468zm-109.859 57.196l109.072-56.719-6.459-12.421-109.072 56.719 6.459 12.421zM91.987 47.16l83.188 90.736 10.319-9.461-83.187-90.736-10.32 9.461zm-.59-.739l.015.023 11.47-8.028-.016-.023-11.47 8.028zm3.59 2.334a5.786 5.786 0 01-3.68-2.465l11.649-7.765a8.216 8.216 0 00-5.224-3.498l-2.745 13.728zm4.345-.86a5.787 5.787 0 01-4.345.86l2.746-13.728a8.213 8.213 0 00-6.167 1.22l7.766 11.648zm2.464-3.68a5.787 5.787 0 01-2.464 3.68l-7.766-11.648a8.213 8.213 0 00-3.498 5.223l13.728 2.745zm.113-1.154c.001.385-.036.772-.113 1.154L88.068 41.47a8.214 8.214 0 00-.16 1.638l14.001-.045zm-.959-3.114a5.768 5.768 0 01.954 3.391l-13.99-.508a8.233 8.233 0 001.361 4.843l11.675-7.726zm.009.009l-.113-.162-11.467 8.032.113.161 11.467-8.031zm57.194 109.855l-56.717-109.07-12.42 6.46 56.716 109.069 12.421-6.459zm45.634 14.685l76.742-70.365-9.461-10.32-76.743 70.366 9.462 10.319zm67.998-81.26l-95.428 66.797 8.029 11.47 95.427-66.797-8.028-11.47zm-90.875 79.511l15.234-1.175-1.077-13.958-15.234 1.175 1.077 13.958zm15.216-1.174a5.764 5.764 0 01-3.198-.692l6.724-12.28a8.233 8.233 0 00-4.566-.989l1.04 13.961zm-3.198-.692a5.765 5.765 0 01-2.306-2.322l12.323-6.643a8.229 8.229 0 00-3.293-3.315l-6.724 12.28zm3.856 1.357h.14v-14h-.14v14zm-6.07-3.77l2.132 4.099 12.42-6.461-2.132-4.099-12.42 6.461zm-20.087 3.662l1.175 15.237 13.959-1.077-1.176-15.237-13.958 1.077zm1.174 15.219a5.763 5.763 0 01.693-3.198l12.279 6.724a8.235 8.235 0 00.989-4.567l-13.961 1.041zm.693-3.198a5.763 5.763 0 012.321-2.306l6.643 12.323a8.235 8.235 0 003.315-3.293l-12.279-6.724zm-1.357 3.855v.14h14v-.14h-14zm3.769-6.069l-4.098 2.132 6.461 12.419 4.098-2.132-6.461-12.419zm-6.027 13.072l70.468 76.855 10.319-9.462-70.468-76.854-10.319 9.461zm81.365 68.114l-.048-.068-11.475 8.02.047.068 11.476-8.02zm-.051-.073l-66.853-95.473-11.468 8.03 66.852 95.473 11.469-8.03zM102.017 61.594l61.424 87.752 11.469-8.029-61.424-87.751-11.469 8.028zm81.257 67.995l-70.363-76.74-10.319 9.462 70.363 76.74 10.319-9.462zm-6.03 13.073l4.1-2.132-6.459-12.421-4.1 2.132 6.459 12.421zm3.771-6.07v-.141h-14v.141h14zm-1.357 3.855a5.763 5.763 0 01-2.321 2.306l-6.644-12.323a8.226 8.226 0 00-3.314 3.293l12.279 6.724zm.693-3.198a5.773 5.773 0 01-.693 3.198l-12.279-6.724a8.234 8.234 0 00-.99 4.566l13.962-1.04zm1.15 15.187l-1.151-15.195-13.96 1.057 1.15 15.195 13.961-1.057zm-18.059-3.089l5.345 7.633 11.467-8.031-5.345-7.633-11.467 8.031z" mask="url(#b)"/>
  <g fill="#004996" opacity=".6">
    <path d="M197.938 40.866l6.676 1.159.358-2.07-4-.689.304-1.71 3.007.524.358-1.904-3.034-.551.276-1.6 3.807.662.358-2.07-6.455-1.13-1.655 9.38zm-10.18-1.848l2.345.441 1.048-5.959 2.373 6.483 2.593.47 1.655-9.38-2.345-.331-.938 5.296-2.069-5.82-3.007-.525-1.655 9.325zM294.135 179.245l-1.186 6.676 2.069.386.718-4.027 1.71.303-.552 3.035 1.931.331.525-3.035 1.627.304-.689 3.779 2.069.386 1.158-6.483-9.38-1.655zm.745-5.076a3.337 3.337 0 001.185 3.758c.378.278.811.474 1.271.573 2.014.359 2.758-.745 3.531-3.09.358-1.131.662-1.379 1.186-1.269.524.111.717.497.607 1.214a1.082 1.082 0 01-.392.789 1.076 1.076 0 01-.849.232l-.442 2.51c2.014.166 3.173-.938 3.587-3.2.413-2.262-.607-3.834-2.29-4.138-1.683-.303-2.759.414-3.614 3.007-.359 1.104-.579 1.435-1.159 1.324-.579-.11-.855-.579-.717-1.379s.8-1.297 1.49-1.242l.441-2.565c-2.041-.276-3.393.855-3.835 3.476zM60.11 135.877l.442-2.759-5.683-2.51 6.207-.386.497-2.759-8.994-3.752-.441 2.483 5.683 2.317-6.152.331-.414 2.373 5.518 2.29-6.07.193-.469 2.758 9.877-.579zm-2.068 11.642l.413-2.373-5.876-1.02 6.483-2.4.47-2.594-9.38-1.655-.414 2.345 5.297.938-5.821 2.069-.524 3.035 9.352 1.655zM192.669 63.156l-26.898 85.273 10.291 8.884 16.607-94.157z"/>
    <path d="M270.219 173.892l-85.301-26.898-8.856 10.318 94.157 16.58z"/>
    <path d="M159.482 251.441l26.898-85.273-10.317-8.856-16.581 94.129z"/>
    <path d="M81.934 140.705l85.273 26.898 8.883-10.29-94.156-16.608z"/>
    <path d="M288.426 78.633L174.6 137.863l1.462 19.449 112.364-78.68zM63.725 235.965l113.826-59.231-1.49-19.422-112.336 78.653zM97.41 44.95l59.203 113.825 19.449-1.462L97.41 44.949zM254.742 269.65l-59.23-113.826-19.45 1.49 78.68 112.336z"/>
    <path d="M187.647 151.657l3.063-70.458-13.105 74.238 10.042-3.78zm6.207-88.28l-3.889 89.163a1.189 1.189 0 01-.745 1.076l-12.801 4.8a1.21 1.21 0 01-1.545-.689 1.288 1.288 0 010-.635l16.553-94.129a1.184 1.184 0 012.088-.505c.189.236.281.535.257.837"/>
    <path d="M181.716 168.872l70.458 3.062-74.238-13.104 3.78 10.042zm88.28 6.207l-89.163-3.862a1.242 1.242 0 01-1.076-.773l-4.8-12.8a1.213 1.213 0 01.69-1.545 1.26 1.26 0 01.634 0l94.129 16.552a1.188 1.188 0 01.505 2.089c-.236.189-.535.28-.836.256"/>
    <path d="M164.64 148.07l26.871-85.19a1.188 1.188 0 01.519-.757 1.196 1.196 0 011.831.786c.029.155.027.313-.005.468l-16.608 94.266c-.04.214-.135.414-.276.579a1.176 1.176 0 01-.841.35 1.187 1.187 0 01-.842-.35l-10.318-8.855a1.186 1.186 0 01-.331-1.269v-.028zm23.726-67.258l-21.243 67.258 8.277 7.007 12.966-74.265z"/>
    <path d="M185.304 145.865l85.19 26.87a1.2 1.2 0 01-.496 2.345l-94.129-16.553a1.24 1.24 0 01-.58-.275 1.19 1.19 0 010-1.683l8.856-10.29a1.158 1.158 0 011.269-.359l-.11-.055zm67.396 23.78l-67.258-21.242-6.98 8.276 74.238 12.966z"/>
    <path d="M164.502 162.941L161.44 233.4l13.104-74.238-10.042 3.779zm-6.207 88.28l3.862-89.245a1.239 1.239 0 01.773-1.076l12.717-4.801a1.218 1.218 0 011.545.69c.054.208.054.427 0 .635l-16.552 94.128a1.185 1.185 0 01-2.345-.331z"/>
    <path d="M170.432 145.726l-70.458-3.062 74.238 13.104-3.78-10.042zm-88.28-6.207l89.246 3.862a1.242 1.242 0 011.076.773l4.8 12.717a1.213 1.213 0 01-.69 1.545 1.26 1.26 0 01-.634 0l-94.129-16.552a1.156 1.156 0 01-.965-.912 1.158 1.158 0 010-.468 1.184 1.184 0 011.296-.965z"/>
    <path d="M187.456 166.526l-26.816 85.191a1.194 1.194 0 01-1.42.924 1.199 1.199 0 01-.924-1.421l16.552-94.128a1.25 1.25 0 01.276-.58 1.176 1.176 0 01.841-.35 1.186 1.186 0 01.842.35l10.29 8.856a1.157 1.157 0 01.359 1.269v-.111zm-23.726 67.397l21.243-67.259-8.277-6.979-12.966 74.238z"/>
    <path d="M166.848 168.68l-85.19-26.815a1.197 1.197 0 01-.406-2.177 1.2 1.2 0 01.902-.168l94.128 16.553c.214.039.414.134.58.276a1.182 1.182 0 010 1.682l-8.718 10.346a1.164 1.164 0 01-1.269.358l-.027-.055zm-67.259-23.67l67.259 21.242 6.979-8.276-74.238-12.966z"/>
    <path d="M193.634 163.935L274.3 89.973l-95.839 67.093 15.173 6.869zm95.536-84.363l-94.515 86.653a1.192 1.192 0 01-1.297.193l-17.766-8.028a1.187 1.187 0 01-.193-2.069l112.336-78.68a1.214 1.214 0 011.655.303 1.184 1.184 0 01-.22 1.628z"/>
    <path d="M174.048 136.788L287.791 77.64a1.196 1.196 0 011.656.331 1.196 1.196 0 01-.331 1.655l-112.364 78.652c-.17.121-.372.188-.58.193a1.17 1.17 0 01-.872-.267 1.18 1.18 0 01-.424-.809l-1.462-19.311a1.213 1.213 0 01.634-1.158v-.138zm98.929-48.748l-97.136 50.486 1.269 16.552 95.867-67.038z"/>
    <path d="M158.515 150.665l-80.666 73.962 95.812-66.982-15.146-6.98zM62.98 235.028l94.515-86.653a1.189 1.189 0 011.296-.193l17.767 8.028a1.178 1.178 0 01.631.66 1.197 1.197 0 01-.025.913c-.091.199-.234.37-.413.496l-112.337 78.68a1.242 1.242 0 01-1.683-.304 1.213 1.213 0 01.249-1.627z"/>
    <path d="M178.103 177.81L64.36 236.986a1.196 1.196 0 01-1.656-.331 1.196 1.196 0 01.331-1.656L175.4 156.32c.17-.121.372-.188.58-.193a1.146 1.146 0 01.862.269 1.156 1.156 0 01.407.807l1.49 19.311a1.214 1.214 0 01-.635 1.158v.138zm-98.874 48.803l97.191-50.541-1.269-16.552-95.922 67.093z"/>
    <path d="M182.71 139.74l-73.962-80.666 67.093 95.811 6.869-15.145zM98.347 44.204L185 138.72a1.185 1.185 0 01.193 1.297l-8.028 17.766a1.182 1.182 0 01-1.118.711 1.204 1.204 0 01-.951-.518L96.416 45.639a1.214 1.214 0 01.304-1.656 1.186 1.186 0 011.627.221z"/>
    <path d="M155.563 159.326L96.415 45.582a1.194 1.194 0 111.987-1.324l78.652 112.364c.12.17.187.371.193.579a1.167 1.167 0 01-.27.863 1.156 1.156 0 01-.806.406l-19.311 1.49a1.209 1.209 0 01-1.159-.634h-.138zm-48.747-98.874l50.485 97.191 16.553-1.269-67.038-95.922z"/>
    <path d="M169.44 174.859l73.963 80.666-66.983-95.84-6.98 15.174zm84.363 95.535l-86.652-94.515a1.181 1.181 0 01-.194-1.296l8.028-17.767a1.194 1.194 0 011.119-.71c.157.004.311.039.454.103.194.1.363.242.497.414l78.679 112.337a1.244 1.244 0 01-.303 1.683 1.212 1.212 0 01-1.628-.249z"/>
    <path d="M196.588 155.271l59.175 113.743a1.196 1.196 0 01-.331 1.655 1.193 1.193 0 01-1.656-.331l-78.679-112.364a1.344 1.344 0 01-.221-.579 1.2 1.2 0 01.288-.864 1.19 1.19 0 01.816-.405l19.311-1.49a1.212 1.212 0 011.159.635h.138zM245.39 254.2l-50.568-97.136-16.553 1.269L245.39 254.2zM85.216 133.669a93.547 93.547 0 0126.843-44.995l1.71 3.283A90.13 90.13 0 0088.94 133.89l-3.724-.221zm7.2 66.211a93.633 93.633 0 01-9.793-51.451l3.476 1.103a90.017 90.017 0 009.048 47.892l-2.73 2.456zm60.031 48.223a93.544 93.544 0 01-44.995-26.788l3.282-1.71a90.13 90.13 0 0041.934 24.828l-.221 3.67zm66.21-7.201a93.63 93.63 0 01-51.506 9.794l1.103-3.476a90.017 90.017 0 0047.892-9.049l2.511 2.731zm48.223-60.03a93.547 93.547 0 01-26.843 45.05l-1.71-3.283a90.124 90.124 0 0024.829-41.933l3.724.166zm-7.2-66.21a93.636 93.636 0 019.793 51.506l-3.476-1.104a90.019 90.019 0 00-9.049-47.892l2.732-2.51zm-59.976-48.223a93.33 93.33 0 0145.051 26.842l-3.283 1.71a90.133 90.133 0 00-41.933-24.828l.165-3.724zm-66.21 7.2a93.633 93.633 0 0151.451-9.794l-1.104 3.476a90.02 90.02 0 00-47.892 9.05l-2.455-2.732zM66.07 122.276a114.986 114.986 0 0135.864-53.354l1.131 2.179a112.504 112.504 0 00-35.119 53.216 4.688 4.688 0 00-1.848-2.041h-.028zm9.987 92.666a114.9 114.9 0 01-15.504-58.347 4.53 4.53 0 001.324-.745 4.89 4.89 0 001.104-1.159 112.253 112.253 0 0014.814 58.596l-1.738 1.655zM140.115 267a115.172 115.172 0 01-52.416-35.422l2.18-1.131a112.507 112.507 0 0051.726 34.512 5.256 5.256 0 00-1.241 1.544l-.249.497zm93.605-9.683a114.852 114.852 0 01-61.631 15.339 4.409 4.409 0 00-.634-2.401 112.437 112.437 0 0060.692-14.759l1.573 1.821zm52.416-65.465a114.844 114.844 0 01-35.864 53.823l-1.103-2.18a112.63 112.63 0 0034.953-53.161 4.582 4.582 0 002.042 1.518h-.028zm-10.042-92.143a115.034 115.034 0 0115.311 62.348 4.416 4.416 0 00-2.4.69 112.613 112.613 0 00-14.731-61.383l1.82-1.655zm-64.582-52.278a114.956 114.956 0 0152.94 35.726l-2.179 1.103a112.314 112.314 0 00-52.747-34.926l.579-.386a4.725 4.725 0 001.352-1.517h.055zm-93.025 9.849a114.734 114.734 0 0160.692-15.367c.147.724.459 1.403.911 1.987l.386.441a112.502 112.502 0 00-60.334 14.76l-1.655-1.821z"/>
    <path d="M58.29 118.276a123.428 123.428 0 0139.422-57.188l1.683 3.227a119.978 119.978 0 00-37.906 55.617l-3.2-1.656zm11.255 102.626a123.288 123.288 0 01-17.518-66.651l2.759.496c.221.332.49.63.8.883a119.98 119.98 0 0016.552 62.817l-2.593 2.455zm66.596 53.879a123.292 123.292 0 01-56.278-39.12l3.227-1.682a120.082 120.082 0 0054.706 37.601l-1.655 3.201zm103.536-11.035a123.429 123.429 0 01-69.41 17.407 7.117 7.117 0 000-.8 4.49 4.49 0 00.883-2.069v-.662a119.925 119.925 0 0066.044-16.552l2.483 2.676zm55.175-70.983a123.635 123.635 0 01-40.526 60.692l-1.71-3.227a119.893 119.893 0 0038.622-57.548 4.614 4.614 0 003.035-.303c.2.168.423.308.662.413l-.083-.027zm-12.276-99.15a123.676 123.676 0 0117.38 70.183 5.296 5.296 0 00-.69 0 4.859 4.859 0 00-2.069-.911h-.772a120.062 120.062 0 00-16.553-66.761l2.704-2.51zM212.421 38.66a123.675 123.675 0 0159.865 40.278l-3.228 1.683a119.838 119.838 0 00-56.554-38.182 3.611 3.611 0 000-.441 4.502 4.502 0 00-.276-3.228l.193-.11zm-99.977 12.11a123.757 123.757 0 0169.299-17.435l-.579 3.366-.276.193a119.814 119.814 0 00-65.962 16.553l-2.482-2.676zM113.907 134.911a66.203 66.203 0 0111.67-20.276l1.214 2.289a63.243 63.243 0 00-10.401 18.098l-2.483-.111zm0 45.216a66.217 66.217 0 01-4.055-23.063l2.373.745a63.453 63.453 0 003.586 20.553l-1.904 1.765zm39.644 39.34a65.603 65.603 0 01-20.277-11.697l2.29-1.186a63.88 63.88 0 0018.097 10.4l-.11 2.483zm45.216 0a66.204 66.204 0 01-23.064 4.055l.745-2.372a63.453 63.453 0 0020.553-3.586l1.766 1.903zm39.477-39.754a66.395 66.395 0 01-11.669 20.277l-1.214-2.289a63.252 63.252 0 0010.401-17.988h2.482zm0-45.215a66.189 66.189 0 013.918 23.145l-2.373-.744a63.453 63.453 0 00-3.586-20.553l2.041-1.848zM198.491 95.13a66.207 66.207 0 0120.277 11.67l-2.29 1.213a63.244 63.244 0 00-17.987-10.4V95.13zm-45.216 0a66.21 66.21 0 0123.146-3.917l-.745 2.372a63.45 63.45 0 00-20.553 3.587l-1.848-2.042zM92.72 134.001a86.046 86.046 0 0122.87-38.623l1.71 3.31a82.543 82.543 0 00-20.883 35.478l-3.697-.165zm5.324 60.692a86.265 86.265 0 01-8.276-44.14l3.476 1.104a82.769 82.769 0 007.531 40.471l-2.73 2.565zm54.734 45.878a86.047 86.047 0 01-38.623-22.87l3.311-1.71a82.535 82.535 0 0035.45 20.911l-.138 3.669zm60.693-5.324a86.27 86.27 0 01-44.141 8.276l1.104-3.476a82.546 82.546 0 0040.443-7.531l2.594 2.731zm45.878-54.734a86.047 86.047 0 01-22.87 38.623l-1.711-3.311a82.547 82.547 0 0020.912-35.45l3.669.138zm-5.325-60.692a86.254 86.254 0 018.276 44.14l-3.476-1.104a82.754 82.754 0 00-7.531-40.471l2.731-2.565zm-54.651-45.878a86.046 86.046 0 0138.623 22.87l-3.311 1.71a82.537 82.537 0 00-35.477-20.884l.165-3.696zm-60.692 5.324a86.264 86.264 0 0144.14-8.276l-1.104 3.476a82.765 82.765 0 00-40.609 7.559l-2.427-2.759zM230.988 237.813a1.184 1.184 0 01.304-1.655 1.184 1.184 0 011.655.304l6.345 9.076a1.18 1.18 0 01.29.926 1.19 1.19 0 01-.955 1.025 1.18 1.18 0 01-.944-.222 1.204 1.204 0 01-.322-.377l-6.373-9.077zm-11.035 6.456a1.16 1.16 0 01.525-1.6 1.187 1.187 0 011.6.524l5.103 9.821a1.186 1.186 0 01-2.096 1.104l-5.132-9.849zM124.887 61.584a1.175 1.175 0 01-.122-.928 1.178 1.178 0 011.048-.86 1.184 1.184 0 011.17.685l5.132 9.821a1.197 1.197 0 01-2.125 1.103l-5.103-9.82zm83.397 187.596a1.175 1.175 0 01.044-.908 1.188 1.188 0 01.673-.61 1.16 1.16 0 011.517.69l3.807 10.428a1.19 1.19 0 01-.044.907c-.066.141-.16.268-.276.372-.115.105-.25.186-.397.238a1.168 1.168 0 01-.458.068 1.188 1.188 0 01-1.059-.785l-3.807-10.4zM137.798 55.708a1.19 1.19 0 01.044-.907 1.183 1.183 0 011.131-.678 1.183 1.183 0 011.059.785l3.807 10.4a1.19 1.19 0 01-.044.908 1.176 1.176 0 01-.673.61 1.156 1.156 0 01-1.517-.69l-3.807-10.428zm58.209 197.003a1.208 1.208 0 01-.012-.464 1.205 1.205 0 01.486-.769 1.176 1.176 0 01.886-.2 1.185 1.185 0 01.958.909l2.4 10.814a1.21 1.21 0 01-.911 1.434 1.19 1.19 0 01-1.407-.91l-2.4-10.814zM151.398 51.598a1.211 1.211 0 01.911-1.435 1.184 1.184 0 011.407.91l2.4 10.815a1.19 1.19 0 01-.897 1.42 1.187 1.187 0 01-1.421-.896l-2.4-10.814zm31.974 202.878a1.195 1.195 0 01.288-.864 1.197 1.197 0 011.671-.127c.237.202.386.488.414.798l.965 11.035a1.191 1.191 0 01-.629 1.166 1.208 1.208 0 01-.447.131 1.216 1.216 0 01-1.296-1.076l-.966-11.063zM165.385 49.28a1.19 1.19 0 011.076-1.296 1.212 1.212 0 011.297 1.076l.965 11.035c.012.155-.008.312-.058.46a1.17 1.17 0 01-.597.687c-.14.07-.292.111-.448.122a1.185 1.185 0 01-1.269-1.076l-.966-11.008zm5.214 205.334a1.187 1.187 0 012.373 0l-.469 11.035c0 .315-.125.617-.348.839a1.183 1.183 0 01-1.677 0 1.184 1.184 0 01-.348-.839l.469-11.035zm8.939-205.803a1.188 1.188 0 012.025-.839c.222.223.347.525.347.84l-.469 11.034a1.188 1.188 0 01-1.186 1.187 1.187 1.187 0 01-1.186-1.187l.469-11.035zm-22.07 206.907a1.174 1.174 0 01.488-.77 1.188 1.188 0 01.891-.196 1.217 1.217 0 01.966 1.38l-1.463 8.276a1.21 1.21 0 01-1.379.965 1.174 1.174 0 01-.77-.488 1.188 1.188 0 01-.196-.891l1.463-8.276zm36.277-205.527a1.217 1.217 0 011.38-.966 1.182 1.182 0 01.956.915c.034.152.037.31.009.465l-1.407 8a1.171 1.171 0 01-.489.77 1.181 1.181 0 01-.89.195 1.214 1.214 0 01-.966-1.379l1.407-8zM145.66 249.897a1.189 1.189 0 012.185-.188c.144.28.172.605.077.905l-3.31 10.566a1.216 1.216 0 01-1.518.773 1.176 1.176 0 01-.694-.585 1.182 1.182 0 01-.078-.905l3.338-10.566zm61.879-196.479a1.216 1.216 0 011.517-.772 1.183 1.183 0 01.773 1.49l-3.338 10.566a1.187 1.187 0 01-2.263-.718l3.311-10.566zm-73.742 191.706a1.197 1.197 0 012.18.993l-4.69 10.042a1.212 1.212 0 01-1.6.58 1.19 1.19 0 01-.552-1.573l4.662-10.042zm87.067-186.795a1.184 1.184 0 011.572-.552 1.16 1.16 0 01.58 1.573l-4.663 10.014a1.197 1.197 0 11-2.179-.993l4.69-10.042zm-98.129 180.533c.081-.133.189-.247.315-.338a1.174 1.174 0 01.884-.194c.153.028.299.087.429.173a1.241 1.241 0 01.386 1.655l-5.959 9.325a1.181 1.181 0 01-.744.526 1.188 1.188 0 01-1.27-1.795l5.959-9.352zM233.361 65.06a1.19 1.19 0 112.014 1.27l-5.959 9.352a1.164 1.164 0 01-1.2.532 1.16 1.16 0 01-.428-.174 1.242 1.242 0 01-.386-1.655l5.959-9.325zM112.527 231.137a1.186 1.186 0 011.821 1.518l-7.117 8.497a1.198 1.198 0 01-1.683.165 1.194 1.194 0 01-.166-1.683l7.145-8.497zm132.421-157.8a1.19 1.19 0 011.271-.386 1.192 1.192 0 01.707.58 1.195 1.195 0 01-.13 1.322l-7.145 8.498a1.187 1.187 0 01-1.821-1.517l7.118-8.497zM103.451 222.309a1.187 1.187 0 011.683 0 1.212 1.212 0 010 1.683l-8.276 7.476a1.185 1.185 0 01-1.683 0 1.212 1.212 0 010-1.683l8.276-7.476zM255.183 83.103a1.189 1.189 0 012.003.908c-.01.315-.145.614-.376.83l-8.276 7.503a1.18 1.18 0 01-.841.35 1.186 1.186 0 01-.842-.35 1.216 1.216 0 010-1.682l8.332-7.56zM95.561 212.212a1.188 1.188 0 011.84.73 1.183 1.183 0 01-.488 1.229l-9.076 6.345a1.184 1.184 0 01-1.951-.665 1.187 1.187 0 01.599-1.266l9.076-6.373zm168.753-118.02a1.214 1.214 0 011.655.304 1.174 1.174 0 01.193.891 1.186 1.186 0 01-.496.764l-9.076 6.318a1.2 1.2 0 01-1.669-.29 1.196 1.196 0 01.289-1.669l9.104-6.317zM89.078 201.26a1.194 1.194 0 011.322.146 1.2 1.2 0 01.371 1.277 1.19 1.19 0 01-.59.701l-9.82 5.104a1.186 1.186 0 01-1.104-2.097l9.821-5.131zm182.712-95.149a1.178 1.178 0 01.929-.123 1.193 1.193 0 01.727.59 1.174 1.174 0 01.074.933 1.2 1.2 0 01-.241.413 1.194 1.194 0 01-.385.283l-9.849 5.132a1.154 1.154 0 01-.913.082 1.157 1.157 0 01-.687-.607 1.182 1.182 0 01.158-1.314c.102-.118.226-.216.366-.286l9.821-5.103zM84.195 189.508a1.17 1.17 0 01.458-.068 1.168 1.168 0 01.821.388c.105.115.186.25.238.397a1.16 1.16 0 01-.69 1.517l-10.427 3.807a1.19 1.19 0 01-.908-.044 1.18 1.18 0 01-.678-1.131 1.184 1.184 0 01.786-1.059l10.4-3.807zm193.471-70.486a1.195 1.195 0 01.908.044 1.172 1.172 0 01.61.673 1.19 1.19 0 01-.717 1.517l-10.401 3.807a1.17 1.17 0 01-.458.068 1.176 1.176 0 01-1.059-.785 1.16 1.16 0 01.689-1.517l10.428-3.807zM80.664 177.259a1.185 1.185 0 011.433 1.36 1.19 1.19 0 01-.909.957l-10.814 2.4a1.215 1.215 0 01-1.435-.91 1.188 1.188 0 01.91-1.407l10.815-2.4zm201.113-44.637a1.215 1.215 0 011.435.911 1.185 1.185 0 01-.911 1.407l-10.814 2.4a1.19 1.19 0 01-1.421-.897 1.19 1.19 0 01.897-1.421l10.814-2.4zM78.898 164.596a1.2 1.2 0 01.864.288 1.19 1.19 0 01.405.816 1.184 1.184 0 01-1.076 1.269l-11.035.965a1.19 1.19 0 01-.872-.268 1.18 1.18 0 01-.148-1.673c.2-.242.487-.396.8-.431l11.062-.966zm205.114-17.987a1.19 1.19 0 011.296 1.076 1.215 1.215 0 01-1.076 1.297l-11.035.965a1.176 1.176 0 01-.864-.288 1.2 1.2 0 01-.405-.815 1.186 1.186 0 011.076-1.269l11.008-.966zM78.76 151.878a1.185 1.185 0 011.187 1.187 1.185 1.185 0 01-1.187 1.186l-11.035-.469a1.185 1.185 0 01-1.186-1.186 1.185 1.185 0 011.186-1.187l11.035.469zm205.803 8.939a1.187 1.187 0 110 2.372l-11.035-.469a1.186 1.186 0 010-2.372l11.035.469zm-207.072-22.07a1.172 1.172 0 01.77.488 1.193 1.193 0 01-.283 1.65 1.19 1.19 0 01-.873.207l-8.11-1.435a1.213 1.213 0 01-.966-1.379 1.18 1.18 0 01.489-.77 1.172 1.172 0 01.89-.196l8.083 1.435zm205.693 36.222a1.213 1.213 0 01.966 1.379 1.186 1.186 0 01-1.38.966l-8.276-1.435a1.178 1.178 0 01-.964-.902 1.165 1.165 0 01-.015-.463 1.178 1.178 0 01.902-.964c.152-.036.309-.041.463-.015l8.304 1.434zM83.478 126.884a1.184 1.184 0 01.772 1.49 1.187 1.187 0 01-1.49.772l-10.566-3.31a1.214 1.214 0 01-.549-1.923 1.193 1.193 0 011.266-.367l10.567 3.338zm196.478 61.879a1.211 1.211 0 01.549 1.923 1.19 1.19 0 01-1.266.367l-10.566-3.338a1.187 1.187 0 01.717-2.263l10.566 3.311zM88.14 115.021a1.198 1.198 0 01-.993 2.18l-10.042-4.69a1.212 1.212 0 01-.552-1.6 1.188 1.188 0 011.573-.552l10.014 4.662zm186.713 87.067a1.183 1.183 0 01.551 1.572 1.153 1.153 0 01-.662.626 1.16 1.16 0 01-.91-.047l-10.042-4.662a1.198 1.198 0 01.993-2.179l10.07 4.69zm-180.34-98.129a1.16 1.16 0 01.358 1.627 1.242 1.242 0 01-1.655.387l-9.324-5.959a1.197 1.197 0 01-.539-1.208A1.191 1.191 0 0185.161 98l9.352 5.959zm173.801 110.626a1.187 1.187 0 01.373 1.641 1.19 1.19 0 01-1.642.373l-9.352-5.959a1.167 1.167 0 01-.525-.738 1.16 1.16 0 01.166-.89 1.214 1.214 0 011.628-.386l9.352 5.959zM102.237 93.751a1.185 1.185 0 01-1.517 1.821l-8.497-7.117a1.196 1.196 0 011.517-1.849l8.497 7.145zm157.801 132.421a1.197 1.197 0 01.166 1.682 1.198 1.198 0 01-1.683.166l-8.497-7.145a1.186 1.186 0 011.517-1.821l8.497 7.118zM111.065 84.675a1.183 1.183 0 01.259 1.297c-.06.145-.148.276-.259.386a1.212 1.212 0 01-1.682 0l-7.477-8.276a1.191 1.191 0 011.738-1.628l7.421 8.221zm139.207 151.732a1.182 1.182 0 01-.841 2.021c-.314 0-.616-.121-.842-.339l-7.476-8.276a1.176 1.176 0 01-.35-.841 1.186 1.186 0 01.35-.842 1.216 1.216 0 011.683 0l7.476 8.277zM112.969 69.061a1.217 1.217 0 01.303-1.656 1.196 1.196 0 01.891-.192 1.183 1.183 0 01.765.496l6.317 9.076a1.19 1.19 0 01-.303 1.655 1.157 1.157 0 01-1.656-.303l-6.317-9.076zM155.784 273.952l-2.759-.469-2.51 5.711-.386-6.207-2.759-.497-3.835 8.966 2.483.442 2.317-5.656.331 6.125 2.373.413 2.29-5.517.165 6.042 2.759.469-.469-9.822zm6.318.966a3.308 3.308 0 00-3.733 1.167 3.303 3.303 0 00-.571 1.261c-.359 2.041.745 2.758 3.062 3.558 1.131.359 1.38.635 1.297 1.159-.083.524-.497.745-1.214.607a1.088 1.088 0 01-.796-.372 1.086 1.086 0 01-.252-.842l-2.483-.441c-.166 2.014.938 3.172 3.172 3.586 2.235.414 3.862-.607 4.166-2.29.303-1.682-.441-2.758-3.035-3.614-1.076-.358-1.407-.579-1.324-1.158.083-.58.607-.855 1.38-.718.772.138 1.324.801 1.269 1.49l2.565.442c.276-2.042-.883-3.394-3.503-3.835z"/>
  </g>
  <path fill="#E84910" d="M195.93 187.211a32.854 32.854 0 003.856-50.649 32.85 32.85 0 00-35.954-6.328 32.853 32.853 0 00-19.607 30.794 32.847 32.847 0 005.938 18.127 32.907 32.907 0 0045.767 8.056z"/>
  <path fill="#004996" d="M192.594 182.465a27.06 27.06 0 003.2-41.72 27.061 27.061 0 00-45.774 20.138 27.072 27.072 0 004.889 14.934 27.091 27.091 0 0037.685 6.648z"/>
  <path fill="#fff" d="M190.939 156.588l-3.862-5.517a8.285 8.285 0 00-5.405-3.703 8.278 8.278 0 00-6.403 1.386l-.689.496a7.892 7.892 0 00-3.283 5.683 7.938 7.938 0 00-6.483 1.159l-.69.469a8.83 8.83 0 00-1.573 12.359l5.904 8.469 3.559-2.482-4.966-7.118c-1.241-1.766-3.724-5.297-.193-7.78 3.531-2.483 6.042 1.049 7.283 2.759l4.966 7.118 3.559-2.511-4.966-7.09c-1.048-1.462-3.752-5.159-.276-7.917 3.476-2.759 6.235 1.379 7.283 2.758l2.759 3.752 3.476-2.29z"/>
  <path fill="#E84910" d="M193.007 159.623a2.153 2.153 0 01-.62 3.531 2.156 2.156 0 11.62-3.531z"/>
  <defs>
    <filter id="filter0_d" width="352.385" height="352.385" x=".48" y="0" color-interpolation-filters="sRGB" filterUnits="userSpaceOnUse">
      <feFlood flood-opacity="0" result="BackgroundImageFix"/>
      <feColorMatrix in="SourceAlpha" result="hardAlpha" values="0 0 0 0 0 0 0 0 0 0 0 0 0 0 0 0 0 0 127 0"/>
      <feOffset dy="19"/>
      <feGaussianBlur stdDeviation="19"/>
      <feComposite in2="hardAlpha" operator="out"/>
      <feColorMatrix values="0 0 0 0 0 0 0 0 0 0 0 0 0 0 0 0 0 0 0.18 0"/>
      <feBlend in2="BackgroundImageFix" result="effect1_dropShadow"/>
      <feBlend in="SourceGraphic" in2="effect1_dropShadow" result="shape"/>
    </filter>
  </defs>
</svg>
