<svg xmlns="http://www.w3.org/2000/svg" width="40" height="32" viewBox="0 0 40 32">
    <g fill="none" fill-rule="evenodd">
        <g fill="#EB3C32">
            <g>
                <g>
                    <g>
                        <path d="M19.998.01c2.347-.05 4.693.104 7.013.464 1.404.246 3.433.808 4.825 2.817.771 1.144 2.04 3.962 3.02 6.464.62-.63 1.452-1.003 2.331-1.046h.772c1.12.013 2.026.921 2.041 2.046v1.49c-.022 1.164-.959 2.102-2.119 2.12h-1.016c.103.128.204.265.302.41.992 1.506 1.498 3.284 1.45 5.09v10.04c0 1.157-.935 2.095-2.087 2.095h-2.698c-.557 0-1.09-.224-1.482-.621-.392-.398-.61-.936-.604-1.495v-1.575H8.25v1.595C8.25 31.062 7.316 32 6.164 32H3.466c-.555-.002-1.086-.226-1.476-.623-.39-.396-.606-.932-.602-1.49V19.865c-.053-1.804.45-3.581 1.437-5.09.095-.133.196-.27.302-.41H2.11C.943 14.343.006 13.39 0 12.217v-1.49C.013 9.6.92 8.69 2.041 8.677h.772c.88.043 1.711.417 2.33 1.046.988-2.485 2.246-5.307 3.03-6.439C9.563 1.286 11.592.711 12.996.465 15.313.11 17.656-.043 19.998.01zm6.006 7.885l-8.766 8.392-3.539-4.062-2.967 2.502 6.252 7.168L28.732 10.64l-2.728-2.746z" transform="translate(-1116 -5107) translate(340 4987) translate(0 70) translate(776 50)"/>
                    </g>
                </g>
            </g>
        </g>
    </g>
</svg>
