<svg xmlns="http://www.w3.org/2000/svg" width="82" height="78" viewBox="0 0 82 78">
    <g fill="none" fill-rule="evenodd">
        <g fill="#FFF" fill-rule="nonzero">
            <g>
                <g>
                    <path d="M65.947 86c6.051 0 10.906-1.835 14.565-5.504C84.17 76.826 86 72.169 86 66.524c0-5.363-1.9-9.791-5.7-13.284C76.502 49.747 71.753 48 66.054 48c-5.77 0-10.554 1.8-14.354 5.398-3.8 3.6-5.699 8.08-5.699 13.443 0 5.575 1.794 10.162 5.383 13.76C54.97 84.202 59.826 86 65.947 86zm.447 39L119 49h-10.394L56 125h10.394zm-.29-50c-1.932 0-3.432-.715-4.5-2.144C60.533 71.427 60 69.423 60 66.843c0-2.44.534-4.357 1.603-5.751 1.07-1.395 2.57-2.092 4.5-2.092 1.863 0 3.31.697 4.345 2.092C71.483 62.486 72 64.438 72 66.948s-.517 4.479-1.552 5.908C69.414 74.286 67.966 75 66.103 75zm41.843 51c6.051 0 10.906-1.835 14.565-5.504 3.659-3.67 5.488-8.327 5.488-13.972 0-5.434-1.882-9.88-5.646-13.337-3.765-3.458-8.532-5.187-14.301-5.187-5.7 0-10.466 1.8-14.301 5.398-3.835 3.6-5.752 8.08-5.752 13.443 0 5.575 1.794 10.162 5.383 13.76 3.588 3.6 8.443 5.399 14.564 5.399zm.053-11c-1.862 0-3.328-.702-4.397-2.105-1.069-1.404-1.603-3.404-1.603-6 0-2.456.534-4.386 1.603-5.79C104.673 99.702 106.138 99 108 99c1.931 0 3.414.702 4.448 2.105 1.035 1.404 1.552 3.334 1.552 5.79 0 5.403-2 8.105-6 8.105z" transform="translate(-920 -1416) translate(317 1360) translate(557 8)"/>
                </g>
            </g>
        </g>
    </g>
</svg>
