<svg xmlns="http://www.w3.org/2000/svg" width="66" height="78" viewBox="0 0 66 78">
    <g fill="none" fill-rule="evenodd">
        <g fill="#FFF" fill-rule="nonzero">
            <g>
                <g>
                    <path d="M97.857 126c6.775 0 12.088-2.143 15.939-6.43 3.85-4.285 5.919-9.864 6.204-16.736h-19.682c-.286 4.18-2.532 6.27-6.74 6.27-.998 0-4.243-.78-9.734-2.338.714-2.126 1.07-4.216 1.07-6.27 0-1.417-.143-3.4-.428-5.951h16.794V81.793H82.347c-.5-3.188-.749-5.951-.749-8.289 0-2.834.767-5.065 2.3-6.695s3.583-2.444 6.15-2.444c2.568 0 4.529.744 5.884 2.232 1.355 1.487 2.246 3.825 2.674 7.013h20.003c-.356-8.076-2.941-14.363-7.755-18.862C106.041 50.249 98.856 48 89.3 48c-8.558 0-15.6 2.16-21.127 6.482-5.526 4.322-8.29 10.273-8.29 17.853 0 3.046.428 6.2 1.284 9.458h-5.455v12.752h9.627c.57 2.125.855 4.109.855 5.95 0 2.197-.285 4.145-.855 5.846-3.423 1.416-6.098 3.808-8.023 7.173-1.925 3.365-3.03 7.208-3.316 11.53h16.152c.357-3.047 2.104-4.57 5.242-4.57 1.212 0 4.243.921 9.092 2.763 4.85 1.842 9.307 2.763 13.371 2.763z" transform="translate(-501 -1416) translate(317 1360) translate(130 8)"/>
                </g>
            </g>
        </g>
    </g>
</svg>
